<svg t="1622010363427" class="icon" viewBox="0 0 1024 1024" version="1.1" xmlns="http://www.w3.org/2000/svg" p-id="945" width="200" height="200"><path d="M686.9 360.7c0 9.8-0.7 19.6-2 29.3 0.5-3.5 0.9-7 1.4-10.5-2.6 18.5-7.5 36.5-14.6 53.7 1.3-3.2 2.7-6.3 4-9.5-7.2 17.1-16.6 33.2-28 48 2.1-2.7 4.1-5.3 6.2-8a218.15 218.15 0 0 1-39 39c2.7-2.1 5.3-4.1 8-6.2-14.8 11.3-30.8 20.7-48 28 3.2-1.3 6.3-2.7 9.5-4-17.2 7.2-35.2 12.1-53.7 14.6 3.5-0.5 7-0.9 10.5-1.4a221.1 221.1 0 0 1-58.6 0c3.5 0.5 7 0.9 10.5 1.4-18.5-2.6-36.5-7.5-53.7-14.6 3.2 1.3 6.3 2.7 9.5 4-17.1-7.2-33.2-16.6-48-28 2.7 2.1 5.3 4.1 8 6.2a218.15 218.15 0 0 1-39-39c2.1 2.7 4.1 5.3 6.2 8-11.3-14.8-20.7-30.8-28-48 1.3 3.2 2.7 6.3 4 9.5-7.2-17.2-12.1-35.2-14.6-53.7 0.5 3.5 0.9 7 1.4 10.5a221.1 221.1 0 0 1 0-58.6c-0.5 3.5-0.9 7-1.4 10.5 2.6-18.5 7.5-36.5 14.6-53.7-1.3 3.2-2.7 6.3-4 9.5 7.2-17.1 16.6-33.2 28-48-2.1 2.7-4.1 5.3-6.2 8 11.3-14.6 24.4-27.7 39-39-2.7 2.1-5.3 4.1-8 6.2 14.8-11.3 30.8-20.7 48-28-3.2 1.3-6.3 2.7-9.5 4 17.2-7.2 35.2-12.1 53.7-14.6-3.5 0.5-7 0.9-10.5 1.4 19.5-2.6 39.2-2.6 58.6 0-3.5-0.5-7-0.9-10.5-1.4 18.5 2.6 36.5 7.5 53.7 14.6-3.2-1.3-6.3-2.7-9.5-4 17.1 7.2 33.2 16.6 48 28-2.7-2.1-5.3-4.1-8-6.2 14.6 11.3 27.7 24.4 39 39-2.1-2.7-4.1-5.3-6.2-8 11.3 14.8 20.7 30.8 28 48-1.3-3.2-2.7-6.3-4-9.5 7.2 17.2 12.1 35.2 14.6 53.7-0.5-3.5-0.9-7-1.4-10.5 1.3 9.7 2 19.5 2 29.3 0 10.2 4.4 20.8 11.6 28 6.9 6.9 18.2 12.1 28 11.6 10.3-0.5 20.9-3.8 28-11.6 7.1-7.7 11.6-17.3 11.6-28-0.1-50.9-15.5-102.8-45.2-144.5-8.1-11.3-16.8-22.4-26.4-32.4-9.7-10.1-20.5-18.8-31.6-27.3-20.1-15.4-42.5-26.7-66.2-35.4-24.2-8.9-50.4-13.4-76.1-14.4-26-1-52.8 2.3-77.8 9.3-47.9 13.5-92.9 41.8-124.6 80.3-8.9 10.8-17.3 22-24.5 33.9-7.3 12.1-13 24.9-18.4 38-9.9 24-14.9 49.4-16.9 75.2-2.1 26.1 0.6 52.9 6.7 78.3 5.9 24.4 15.9 48.4 28.9 69.9 25.6 42.4 64.3 78.4 109.6 98.9 12.9 5.8 26.1 11.2 39.8 15 14 3.9 28.4 6.1 42.8 7.8 26.2 3.1 52.8 1.1 78.6-4.1 49-9.8 95.6-36.1 130.1-72.1 34.7-36.2 59.6-83.3 67.3-133 2.2-14.4 3.9-28.8 3.9-43.4 0-10.1-4.4-20.9-11.6-28-6.9-6.9-18.2-12.1-28-11.6-21.5 0.9-39.5 17.4-39.6 39.6z m-47.1 425.1H384.2c-20.3 0-37-16.6-37-37v-5.4c0-20.3 16.6-37 37-37h255.6c20.3 0 37 16.6 37 37v5.4c0 20.4-16.7 37-37 37z" p-id="946"></path><path d="M517.3 917.5H512c-20.3 0-37-16.6-37-37V612.6c0-20.3 16.6-37 37-37h5.4c20.3 0 37 16.6 37 37v267.9c-0.1 20.4-16.7 37-37.1 37z" p-id="947"></path></svg>
