<svg width="24" height="24" viewBox="0 0 24 24" fill="none" xmlns="http://www.w3.org/2000/svg">
<path fill-opacity=".2" fill="#222628" d="M11.2003 22H12.8015C15.8003 22 17.2997 22 18.3511 21.2361C18.6907 20.9893 18.9893 20.6907 19.2361 20.3511C20 19.2997 20 17.7998 20 14.8V13.427C20 11.9327 20 11.1855 19.75 10.5121C19.6675 10.2898 19.5655 10.0753 19.445 9.8711C19.0799 9.25242 18.5 8.78127 17.3403 7.83897L12 3.5L6.65973 7.83897C5.49998 8.78127 4.9201 9.25242 4.55503 9.8711C4.43455 10.0753 4.33245 10.2898 4.24996 10.5121C4 11.1855 4 11.9327 4 13.427V14.8C4 17.7998 4 19.2997 4.76393 20.3511C5.01065 20.6907 5.30928 20.9893 5.64886 21.2361C6.70032 22 8.2003 22 11.2003 22Z"/>
<path fill="#222628" fill-rule="evenodd" clip-rule="evenodd" d="M11.9998 2.59814L17.7815 7.29576C17.8173 7.32483 17.8526 7.35353 17.8876 7.3819C18.9455 8.24103 19.618 8.78717 20.0477 9.51544C20.1893 9.75536 20.3092 10.0074 20.4061 10.2686C20.7004 11.0613 20.7002 11.9276 20.6999 13.2905C20.6999 13.3354 20.6998 13.381 20.6998 13.4271V14.8418C20.6999 16.3063 20.6999 17.4625 20.6003 18.3817C20.4983 19.3226 20.2853 20.0977 19.8022 20.7627C19.5123 21.1617 19.1614 21.5126 18.7624 21.8025C18.0975 22.2855 17.3226 22.4986 16.3818 22.6005C15.463 22.7001 14.3071 22.7001 12.8431 22.7001H11.1584C9.69379 22.7001 8.5375 22.7001 7.61832 22.6005C6.67735 22.4986 5.90221 22.2856 5.23726 21.8025C4.83825 21.5126 4.48736 21.1617 4.19747 20.7627C3.71435 20.0977 3.50135 19.3226 3.39941 18.3817C3.29983 17.4625 3.29984 16.3063 3.29985 14.8418L3.29985 13.4271C3.29985 13.381 3.29984 13.3354 3.29982 13.2904C3.29951 11.9276 3.29931 11.0613 3.59355 10.2686C3.69048 10.0074 3.81044 9.75536 3.95201 9.51544C4.38174 8.78717 5.05423 8.24102 6.11211 7.3819C6.14704 7.35353 6.18239 7.32483 6.21816 7.29576L11.9998 2.59814ZM11.9998 4.402L7.10099 8.38232C5.90074 9.35752 5.44396 9.74186 5.15775 10.2269C5.05835 10.3954 4.97412 10.5723 4.90606 10.7557C4.71009 11.2837 4.69985 11.8806 4.69985 13.4271V14.8001C4.69985 16.3156 4.70081 17.3959 4.79126 18.2309C4.8803 19.0527 5.04927 19.5532 5.33009 19.9398C5.53363 20.2199 5.78 20.4663 6.06016 20.6698C6.44666 20.9506 6.94724 21.1196 7.76911 21.2087C8.60408 21.2991 9.68453 21.3001 11.2001 21.3001H12.8014C14.3164 21.3001 15.3963 21.2991 16.231 21.2087C17.0525 21.1196 17.553 20.9507 17.9395 20.6698C18.2197 20.4663 18.4661 20.2199 18.6696 19.9398C18.9504 19.5532 19.1194 19.0527 19.2084 18.2309C19.2989 17.3959 19.2998 16.3156 19.2998 14.8001V13.4271C19.2998 11.8806 19.2896 11.2837 19.0936 10.7557C19.0256 10.5723 18.9413 10.3954 18.8419 10.2269C18.5557 9.74186 18.0989 9.35752 16.8987 8.38232L11.9998 4.402Z"/>
<path fill-rule="evenodd" fill="#222628" clip-rule="evenodd" d="M12.6062 2.52188C12.941 2.81021 12.941 3.27768 12.6062 3.56601L2.81858 11.9956C2.4838 12.2839 1.94101 12.2839 1.60623 11.9956C1.27145 11.7072 1.27145 11.2398 1.60623 10.9514L11.3939 2.52188C11.7287 2.23355 12.2714 2.23355 12.6062 2.52188Z"/>
<path fill-rule="evenodd" fill="#222628" clip-rule="evenodd" d="M11.3938 2.52188C11.059 2.81021 11.059 3.27768 11.3938 3.56601L21.1814 11.9956C21.5162 12.2839 22.059 12.2839 22.3938 11.9956C22.7286 11.7072 22.7286 11.2398 22.3938 10.9514L12.6061 2.52188C12.2713 2.23355 11.7286 2.23355 11.3938 2.52188Z"/>
<path fill-rule="evenodd" fill="#222628" clip-rule="evenodd" d="M9 18.1419C9 17.7553 9.3134 17.4419 9.7 17.4419H13.8C14.1866 17.4419 14.5 17.7553 14.5 18.1419C14.5 18.5285 14.1866 18.8419 13.8 18.8419H9.7C9.3134 18.8419 9 18.5285 9 18.1419Z"/>
</svg>
