<svg t="1621749463732" class="icon" viewBox="0 0 1024 1024" version="1.1" xmlns="http://www.w3.org/2000/svg" p-id="5802" width="200" height="200"><path d="M791.6 959.7H231c-69.5 0-126-56.5-126-126V410.3c0-38.9 17.5-75 48-99L430.7 92.7c45.5-35.8 109.2-36.1 155-0.6l283 219c30.6 23.6 48.9 60.9 48.9 99.6v423.1c0 69.4-56.5 125.9-126 125.9z m-283-804.6c-8 0-16 2.6-22.6 7.8L208.3 381.5c-8.9 7-13.9 17.4-13.9 28.7v423.5c0 20.2 16.4 36.6 36.6 36.6h560.6c20.2 0 36.6-16.4 36.6-36.6v-423c0-11.4-5.2-21.9-14.2-28.9l-283-219c-6.6-5.2-14.5-7.7-22.4-7.7zM180.7 346.4h0.2-0.2z" fill="#333333" p-id="5803"></path><path d="M511.3 751.5c-24.7 0-44.7-20-44.7-44.7v-152c0-24.7 20-44.7 44.7-44.7 24.7 0 44.7 20 44.7 44.7v152c0 24.7-20 44.7-44.7 44.7z" fill="#333333" p-id="5804"></path></svg>
