<svg width="1024px" height="1024px" viewBox="0 0 1024 1024" version="1.1" xmlns="http://www.w3.org/2000/svg" xmlns:xlink="http://www.w3.org/1999/xlink">
    <g id="Desktop" stroke="none" stroke-width="1" fill="none" fill-rule="evenodd">
        <g id="Group" transform="translate(173.000000, 160.000000)" fill="#000000">
            <g id="Logo-black">
                <g id="Group" stroke-width="1" fill-rule="evenodd" transform="translate(1.000000, 0.000000)">
                    <polygon id="Combined-Shape" fill-rule="nonzero" points="532.219209 268.582187 673.894455 405.365197 539 542.045501 539 455.464126 587.318652 407.501457 526.739199 348.367192 527.755763 542.045501 256.307946 542.045501 372.414691 427.476746 372.414691 480.010229 466.490032 480.010229 466.490032 334.140815"></polygon>
                </g>
                <path d="M241.77926,70.7609914 L257.329508,85.6696456 L257.329508,1.36851258 L524.655015,259.838708 L241.77926,542.077529 C150.16313,542.077529 118.033424,550.136665 76.328092,518.613332 C27.2773363,481.537897 14.6341433,440.159176 13.2412505,409.324296 C12.6984369,397.30787 13.2412505,402.749872 13.2412505,397.321963 C13.2412505,379.258545 61.9470968,374.418619 61.9470968,349.752911 C61.9470968,305.48371 66.7909613,271.284623 76.328092,250.669183 C94.9931864,210.322756 127.397239,190.459924 159.402458,176.224227 C191.407678,161.988531 216.299814,157.129961 241.77926,155.167285 L241.77926,70.7609914 Z M149.439225,269.701783 C147.283269,269.064445 144.967042,269.94441 143.778137,271.852511 C137.130425,282.521509 133.806569,295.304101 133.806569,310.200286 C133.806569,324.177243 136.732859,336.293414 142.585438,346.548798 C142.815678,346.952243 143.101015,347.321635 143.433218,347.646318 C145.408063,349.576455 148.573677,349.540213 150.503819,347.565373 C155.326059,342.631437 160.572163,335.147161 166.24213,325.112543 C172.996149,313.159388 177.516651,302.251831 179.803635,292.38987 C180.296682,290.263745 179.596319,288.037577 177.974785,286.57671 C172.49577,281.640568 167.34271,277.852506 162.515604,275.212525 C158.151102,272.825545 153.792309,270.988631 149.439225,269.701783 Z" id="Combined-Shape" fill-rule="nonzero"></path>
            </g>
            <text id="HZFEStudio" stroke="#000000" stroke-width="3" font-family="PingFangSC-Semibold, PingFang SC" font-size="120" font-weight="500" letter-spacing="-1.02999997">
                <tspan x="15" y="669">HZFE</tspan>
                <tspan x="322.76" y="669" font-family="PingFangSC-Light, PingFang SC" font-weight="300">Studi</tspan>
                <tspan x="598.65" y="669" font-family="PingFangSC-Light, PingFang SC" font-weight="300">o</tspan>
            </text>
        </g>
    </g>
</svg>
