<svg t="1621932773182" class="icon" viewBox="0 0 1024 1024" version="1.1" xmlns="http://www.w3.org/2000/svg" p-id="6386" width="200" height="200"><path d="M513.2 914.7h-0.7c-4.6 0-9.1-0.7-13.5-2.1-9.8-3.1-241.9-78.3-367.5-296.5-68.7-119.2-108.2-300.9 6.4-420.7 53.3-55.7 113.2-84.3 178.1-85 65.1-1.5 132.7 27.5 196.8 82.1 64.1-54.5 131.4-82.6 196.8-82.1 64.9 0.7 124.8 29.3 178.1 85 114.6 119.8 75.1 301.5 6.4 420.7-125.6 218.1-357.7 293.4-367.5 296.5-4.3 1.4-8.9 2.1-13.4 2.1z m0-44.8h0.2-0.2z m0 0h0.2-0.2zM318.5 199.8H317c-39.9 0.4-78.4 19.8-114.4 57.4-75.3 78.7-51 214.5 6.4 314.2C301.5 732 465.3 804.3 512.7 822.5c47.4-18.3 211.8-91.2 303.9-251.1 57.5-99.7 81.7-235.6 6.4-314.2-36-37.6-74.5-57-114.4-57.4h-1.5c-64 0-123.1 45.6-161.6 84.1-1.6 1.6-3.3 3.1-5.2 4.5-7.6 6.5-17.1 9.9-27.5 10.1-11.8 0.6-24.6-5.6-33.3-15-37.9-38-97-83.7-161-83.7z" fill="#333333" p-id="6387"></path><path d="M276.6 477.7c-17.1 0-33.4-9.9-40.9-26.5-29.9-66.9-10.3-113.4 11.3-140.7 35.9-45.2 87-55.2 136.7-26.9 21.5 12.2 28.9 39.5 16.7 61-12.3 21.5-39.6 28.9-61 16.7-11-6.3-13.4-6.5-22.3 4.8-4.8 6-13.7 17.3 0.3 48.6 10.1 22.5 0 49-22.6 59.1-5.9 2.6-12.1 3.9-18.2 3.9z" fill="#333333" p-id="6388"></path></svg>
