<svg t="1622010331185" class="icon" viewBox="0 0 1024 1024" version="1.1" xmlns="http://www.w3.org/2000/svg" p-id="811" width="200" height="200"><path d="M612.9 618c0 11.5-0.8 23-2.3 34.4 0.6-4.1 1.1-8.2 1.7-12.4-3.1 22.1-9 43.7-17.7 64.2 1.6-3.7 3.1-7.4 4.7-11.1-8.6 20.1-19.7 38.9-33 56.1 2.4-3.1 4.9-6.3 7.3-9.4-13.1 16.7-28.1 31.7-44.9 44.8 3.1-2.4 6.3-4.8 9.4-7.3-17.3 13.3-36.2 24.4-56.2 33 3.7-1.6 7.4-3.1 11.1-4.7-20.6 8.7-42.2 14.6-64.3 17.7 4.1-0.6 8.3-1.1 12.4-1.7-22.9 3-46 3-68.9 0 4.1 0.6 8.3 1.1 12.4 1.7-22.1-3.1-43.7-9-64.3-17.7 3.7 1.6 7.4 3.1 11.1 4.7-20.1-8.6-38.9-19.7-56.2-33 3.1 2.4 6.3 4.8 9.4 7.3-16.7-13.1-31.8-28.1-44.9-44.8 2.4 3.1 4.9 6.3 7.3 9.4-13.4-17.3-24.4-36.1-33-56.1 1.6 3.7 3.1 7.4 4.7 11.1-8.7-20.6-14.6-42.1-17.7-64.2 0.6 4.1 1.1 8.2 1.7 12.4-3-22.8-3-45.9 0-68.8-0.6 4.1-1.1 8.2-1.7 12.4 3.1-22.1 9-43.7 17.7-64.2-1.6 3.7-3.1 7.4-4.7 11.1 8.6-20.1 19.7-38.9 33-56.1-2.4 3.1-4.9 6.3-7.3 9.4 13.1-16.7 28.1-31.7 44.9-44.8-3.1 2.4-6.3 4.8-9.4 7.3 17.3-13.3 36.2-24.4 56.2-33-3.7 1.6-7.4 3.1-11.1 4.7 20.6-8.7 42.2-14.6 64.3-17.7-4.1 0.6-8.3 1.1-12.4 1.7 22.9-3 46-3 68.9 0-4.1-0.6-8.3-1.1-12.4-1.7 22.1 3.1 43.7 9 64.3 17.7-3.7-1.6-7.4-3.1-11.1-4.7 20.1 8.6 38.9 19.7 56.2 33-3.1-2.4-6.3-4.8-9.4-7.3 16.7 13.1 31.8 28.1 44.9 44.8-2.4-3.1-4.9-6.3-7.3-9.4 13.4 17.3 24.4 36.1 33 56.1-1.6-3.7-3.1-7.4-4.7-11.1 8.7 20.6 14.6 42.1 17.7 64.2-0.6-4.1-1.1-8.2-1.7-12.4 1.5 11.4 2.3 22.9 2.3 34.4 0 11.9 5.2 24.4 13.6 32.9 8.1 8.1 21.3 14.1 32.9 13.6 12-0.5 24.5-4.5 32.9-13.6 8.3-9.1 13.7-20.3 13.6-32.9-0.2-60-18.3-121.1-53.3-170.1-9.5-13.3-19.7-26.2-31.1-38-11.4-11.8-24.1-22.1-37.1-32.1-23.7-18.2-50.3-31.5-78.3-41.8-28.5-10.4-59.2-15.7-89.5-16.9-30.5-1.2-62 2.6-91.4 10.9-56.5 15.9-109.5 49.2-147 94.5-10.4 12.6-20.4 25.8-28.8 39.8-8.7 14.4-15.5 29.6-21.9 45.2-11.6 28.1-17.4 58-19.8 88.2-2.4 30.6 0.7 62.1 7.9 91.8 6.9 28.8 18.8 57.2 34.2 82.6 30.3 49.8 75.9 92.2 129.3 116.3 15.2 6.8 30.7 13.1 46.8 17.6 16.5 4.6 33.3 7.1 50.3 9.1 30.8 3.7 62 1.3 92.4-4.8 57.8-11.5 112.7-42.5 153.4-84.9 40.9-42.6 70.3-98.1 79.3-156.6C704 652 706 635.1 706 618c0-11.9-5.2-24.5-13.6-32.9-8.1-8.1-21.3-14.1-32.9-13.6-25.3 1.2-46.5 20.5-46.6 46.5zM872 197.3H610.9c-24.8 0-45-20.2-45-45v-0.3c0-24.7 20.3-45 45-45H872c24.7 0 45 20.2 45 45v0.3c0 24.8-20.2 45-45 45z" p-id="812"></path><path d="M917 152v261.1c0 24.7-20.3 45-45 45h-0.3c-24.7 0-45-20.2-45-45V152c0-24.7 20.3-45 45-45h0.3c24.8 0 45 20.3 45 45z" p-id="813"></path><path d="M551.1 472.6l-0.2-0.2c-17.5-17.5-17.5-46.1 0-63.6L839 120.7c17.5-17.5 46.1-17.5 63.6 0l0.2 0.2c17.5 17.5 17.5 46.1 0 63.6l-288 288.1c-17.5 17.5-46.2 17.5-63.7 0z" p-id="814"></path></svg>
