<svg t="1621749497328" class="icon" viewBox="0 0 1024 1024" version="1.1" xmlns="http://www.w3.org/2000/svg" p-id="5939" width="200" height="200"><path d="M673.6 558H351c-24.7 0-44.8-20.1-44.8-44.8 0-24.7 20.1-44.8 44.8-44.8h322.5c24.7 0 44.8 20.1 44.8 44.8 0.1 24.8-20 44.8-44.7 44.8z" fill="#333333" p-id="5940"></path><path d="M512.3 719.3c-24.7 0-44.8-20.1-44.8-44.8V352c0-24.7 20.1-44.8 44.8-44.8 24.7 0 44.8 20.1 44.8 44.8v322.6c0 24.7-20.1 44.7-44.8 44.7z" fill="#333333" p-id="5941"></path><path d="M512.3 961.2c-247 0-448-201-448-448s201-448 448-448 448 201 448 448-201 448-448 448z m0-806.4c-197.6 0-358.4 160.8-358.4 358.4s160.8 358.4 358.4 358.4 358.4-160.8 358.4-358.4-160.8-358.4-358.4-358.4z" fill="#333333" p-id="5942"></path></svg>
