<svg width="24" height="24" viewBox="0 0 24 24" fill="none" xmlns="http://www.w3.org/2000/svg">
<path d="M4.40353 17.3217C4.44018 16.9875 4.45851 16.8204 4.48146 16.7011C4.76002 15.2538 5.93062 14.2795 7.40441 14.2682C7.52585 14.2673 7.71545 14.2812 8.09466 14.309C9.27246 14.3955 10.5992 14.4662 11.7856 14.4662C13.0239 14.4662 14.3971 14.3891 15.5909 14.2976C15.9566 14.2696 16.1394 14.2555 16.2583 14.2559C17.6546 14.2597 18.7826 15.126 19.1465 16.4741C19.1775 16.5889 19.2071 16.7476 19.2663 17.0649C19.3316 17.4148 19.3642 17.5898 19.3769 17.7319C19.5241 19.3755 18.3164 20.8294 16.6737 20.986C16.5316 20.9996 16.3536 20.9996 15.9977 20.9996L11.7856 20.9996H7.70008C7.37618 20.9996 7.21424 20.9996 7.08182 20.9878C5.51016 20.8482 4.31522 19.5151 4.34782 17.9376C4.35057 17.8047 4.36822 17.6437 4.40353 17.3217Z" fill="#C4C4C4" fill-opacity="0.4"/>
<path d="M8 7C8 4.79086 9.79086 3 12 3C14.2091 3 16 4.79086 16 7V7.57143C16 9.46498 14.465 11 12.5714 11H11.4286C9.53502 11 8 9.46498 8 7.57143V7Z" fill="#C4C4C4" fill-opacity="0.2"/>
<path fill-rule="evenodd" clip-rule="evenodd" d="M16.2562 14.9562C16.1729 14.9559 16.0276 14.9664 15.6442 14.9958C14.4421 15.088 13.0491 15.1665 11.7854 15.1665C10.5747 15.1665 9.22892 15.0944 8.04323 15.0074C7.64565 14.9783 7.49467 14.9678 7.40958 14.9685C6.26934 14.9772 5.38417 15.714 5.16866 16.8337C5.15251 16.9176 5.13761 17.0477 5.09916 17.3983C5.06215 17.7358 5.04942 17.8584 5.04748 17.9523C5.02248 19.1618 5.9386 20.1838 7.14354 20.2908C7.23715 20.2992 7.36038 20.2999 7.69988 20.2999L15.9975 20.2999C16.3707 20.2999 16.5067 20.299 16.607 20.2895C17.8664 20.1694 18.7924 19.0547 18.6795 17.7947C18.6705 17.6943 18.6464 17.5604 18.578 17.1936C18.5159 16.8607 18.4923 16.7376 18.4705 16.6568C18.1889 15.6134 17.3369 14.9591 16.2562 14.9562ZM15.5851 13.5963C15.9055 13.5717 16.1128 13.5558 16.26 13.5562C17.972 13.5608 19.376 14.6391 19.8221 16.2919C19.8605 16.4341 19.8947 16.6177 19.9468 16.8969L19.9622 16.9796C20.0199 17.2885 20.0582 17.4939 20.074 17.6698C20.2555 19.6968 18.7659 21.49 16.7399 21.6832C16.5641 21.6999 16.3552 21.6999 16.0409 21.6999L7.69988 21.6999C7.68665 21.6999 7.67361 21.6999 7.66076 21.6999C7.37443 21.6999 7.18359 21.6999 7.01971 21.6854C5.08133 21.5132 3.60757 19.869 3.64778 17.9234C3.65118 17.7589 3.672 17.5692 3.70324 17.2846C3.70464 17.2718 3.70607 17.2589 3.70751 17.2457C3.70908 17.2314 3.71063 17.2172 3.71215 17.2033C3.74435 16.9095 3.76547 16.7167 3.79389 16.5691C4.13549 14.7943 5.5915 13.5824 7.39886 13.5685C7.54924 13.5674 7.76361 13.5831 8.0958 13.6075C8.11215 13.6087 8.12878 13.61 8.1457 13.6112C9.31561 13.697 10.6233 13.7665 11.7854 13.7665C12.9983 13.7665 14.3516 13.6908 15.5371 13.5999L15.5851 13.5963Z" fill="#222628"/>
<path fill-rule="evenodd" clip-rule="evenodd" d="M7.2998 6.9998C7.2998 4.40407 9.40407 2.2998 11.9998 2.2998C14.5955 2.2998 16.6998 4.40407 16.6998 6.9998V7.57123C16.6998 9.85138 14.8514 11.6998 12.5712 11.6998H11.4284C9.14823 11.6998 7.2998 9.85138 7.2998 7.57123V6.9998ZM11.9998 3.6998C10.1773 3.6998 8.6998 5.17726 8.6998 6.9998V7.57123C8.6998 9.07818 9.92143 10.2998 11.4284 10.2998H12.5712C14.0782 10.2998 15.2998 9.07818 15.2998 7.57123V6.9998C15.2998 5.17726 13.8223 3.6998 11.9998 3.6998Z" fill="#222628"/>
</svg>
