<svg t="1621932815963" class="icon" viewBox="0 0 1024 1024" version="1.1" xmlns="http://www.w3.org/2000/svg" p-id="6525" width="200" height="200"><path d="M511.3 850.3c-184.5 0-339.5-156.9-415.5-250.5-42.4-52.3-42.4-128.1 0-180.4 76-93.6 231-250.5 415.5-250.5s339.5 156.9 415.5 250.5c42.5 52.3 42.4 128.1 0 180.4-76 93.6-230.9 250.5-415.5 250.5z m0-591.9c-147.4 0-280.1 136.2-346.1 217.5-15.4 19-15.4 48.7 0 67.6 66 81.2 198.6 217.4 346.1 217.4 147.5 0 280.1-136.2 346.1-217.4 15.4-19 15.4-48.7 0-67.6-65.9-81.3-198.6-217.5-346.1-217.5z" fill="#333333" p-id="6526"></path><path d="M511.3 668.9c-86 0-156-70-156-156s70-156 156-156 156 70 156 156-70 156-156 156z m0-222.6c-36.7 0-66.6 29.9-66.6 66.6 0 36.7 29.9 66.6 66.6 66.6 36.7 0 66.6-29.9 66.6-66.6 0-36.8-29.9-66.6-66.6-66.6z" fill="#333333" p-id="6527"></path></svg>
