<svg xmlns="http://www.w3.org/2000/svg" width="18" height="18" fill="currentcolor" viewBox="0 0 1025 1024"><path d="M852.161 597.573c-21.862-65.727-89.02-89.734-104.31-91.162v-0.002c-15.29-1.43-29.149-9.86-19.005-27.293 10.148-17.434 28.863-68.16-7.14-103.881-36.012-35.867-114.75-22.292-170.476 0.858-55.584 23.148-52.583 7.003-50.87-8.86 1.858-16.717 31.865-110.17-59.872-121.458-120.173-14.717-274.352 134.033-328.797 219.77-82.306 129.458-69.303 217.053-69.303 217.053h0.572c9.86 120.89 187.905 217.196 406.1 217.196 187.62 0 345.657-71.306 392.384-168.185 0 0 0.14-0.429 0.568-1.146 4.86-10.427 8.576-21.005 10.866-32.006 6.57-26.007 11.575-63.725-0.717-100.884zM422.06 846.923c-155.327 0-281.358-83.452-281.358-186.332 0-102.881 125.889-186.331 281.358-186.331 155.321 0 281.354 83.45 281.354 186.331 0 103.023-126.033 186.331-281.354 186.331z" fill="#E71F19" p-id="2222"></path><path d="M804.586 433.964c2.851 1.287 5.854 1.856 8.857 1.856 8.858 0 17.434-5.287 21.004-14.003 5.86-13.861 8.857-28.576 8.857-43.869 0-62.014-50.436-112.456-112.458-112.456-15.145 0-29.862 3-43.726 8.857-11.574 4.86-17.001 18.291-12.147 30.009 4.86 11.574 18.291 17.004 30.006 12.146 8.29-3.432 17.007-5.29 26.01-5.29 36.866 0 66.728 30.01 66.728 66.732 0 9.003-1.71 17.72-5.287 26.005-4.995 11.717 0.427 25.149 12.147 30.004l0.009 0.009z" fill="#F5AA15" p-id="2223"></path><path d="M729.564 125.17c-25.578 0-50.87 3.716-75.16 10.86-18.148 5.428-28.435 24.433-23.149 42.58 5.427 18.15 24.433 28.437 42.585 23.15a197.506 197.506 0 0 1 55.724-8.001c107.6 0 195.195 87.596 195.195 195.193 0 19.29-2.863 38.435-8.29 56.726-5.427 18.15 4.714 37.297 22.86 42.725 3.29 1.003 6.716 1.43 10.003 1.43 14.717 0 28.294-9.576 32.867-24.291 7.43-24.719 11.288-50.44 11.288-76.59-0.14-145.469-118.459-263.782-263.923-263.782z" fill="#F5AA15" p-id="2224"></path><path d="M396.05 542.275c-82.878 0-150.038 58.726-150.038 131.32 0 72.586 67.158 131.32 150.038 131.32 82.878 0 150.038-58.732 150.038-131.32 0-72.591-67.159-131.32-150.038-131.32zM347.037 758.9c-29.007 0-52.58-23.574-52.58-52.58s23.577-52.583 52.58-52.583c29.011 0 52.584 23.577 52.584 52.582S376.045 758.9 347.037 758.9z m98.313-94.734c-6.287 11.001-19.005 15.575-28.293 10.142-9.286-5.286-11.573-18.574-5.286-29.575 6.287-11.007 19.004-15.58 28.291-10.148 9.288 5.428 11.574 18.72 5.288 29.581z" fill="#040000" p-id="2225"></path></svg>
