<svg t="1622085725349" class="icon" viewBox="0 0 1024 1024" version="1.1" xmlns="http://www.w3.org/2000/svg" p-id="8151" width="200" height="200"><path d="M182.4 492.3l45-58.8 71.7-93.6c5.5-7.1 10.9-14.3 16.4-21.4-21.2 2.7-42.4 5.5-63.6 8.2 12.6 15.4 25.1 30.7 37.7 46.1 17.1 20.9 34.2 41.9 51.3 62.8 1.4 1.8 2.8 3.5 4.3 5.3 4 4.7 9.1 8.5 14.1 12 2.1 1.5 4.3 2.7 6.7 3.8 5.2 2.4 10.6 4.9 16.3 6 21.6 4.2 43 0.3 60.6-13.3 4.2-3.2 7.8-6.4 11.1-10.4 15.8-19.2 31.5-38.3 47.3-57.5 14.7-17.9 29.7-35.6 44.2-53.8 0.3-0.3 0.5-0.7 0.8-1H489c13.2 15.8 26.4 31.7 39.6 47.5 17.7 21.3 35.4 42.6 53.2 63.9 1.4 1.6 2.7 3.3 4.1 4.9 12.6 14.7 31.4 21.8 50.2 23.2 22.5 1.7 43.7-9.6 58.4-25.9 17.8-19.9 35.7-39.8 53.5-59.7 15.8-17.7 31.9-35.1 47.5-53 0.3-0.3 0.6-0.6 0.9-1-21.2-2.7-42.4-5.5-63.6-8.2 12.3 19.6 24.6 39.2 36.8 58.8 19.6 31.2 39.1 62.4 58.7 93.6 4.5 7.1 8.9 14.3 13.4 21.4 5.5 8.8 14.1 15.8 24.2 18.6 9.7 2.7 22.6 1.5 31.2-4.1 8.7-5.6 16.3-13.9 18.6-24.2 2.4-10.4 1.8-21.9-4.1-31.2-12.3-19.6-24.6-39.2-36.8-58.8-19.6-31.2-39.1-62.4-58.7-93.6-4.5-7.1-8.9-14.3-13.4-21.4-6.9-10.9-16.9-17.6-29.6-19.3-12.1-1.6-25.5 1.7-34 11.1l-36.6 40.8-57 63.6c-5.1 5.7-10 12.2-16 17 2.7-2.1 5.5-4.2 8.2-6.3-2.3 1.7-4.6 3-7.2 4.1 3.2-1.4 6.5-2.7 9.7-4.1-2.6 1-5.1 1.6-7.8 2 3.6-0.5 7.2-1 10.8-1.4-2.7 0.3-5.3 0.3-8.1 0 3.6 0.5 7.2 1 10.8 1.4-2.7-0.4-5.3-1.1-7.8-2 3.2 1.4 6.5 2.7 9.7 4.1-2.6-1.1-4.9-2.4-7.2-4.1 2.7 2.1 5.5 4.2 8.2 6.3-5.1-4-9.1-9.6-13.3-14.6-7.6-9.1-15.2-18.2-22.8-27.4-17.9-21.5-35.7-42.9-53.6-64.4-4.2-5-8.4-10-12.5-15.1-6-7.2-19.5-12.3-28.6-11.9-10.1 0.5-21.9 3.7-28.6 11.9-28 34.1-56.1 68.1-84.1 102.2-4.8 5.8-9.4 12.6-15.3 17.3 2.7-2.1 5.5-4.2 8.2-6.3-2.3 1.7-4.6 3-7.1 4.1 3.2-1.4 6.5-2.7 9.7-4.1-2.5 1-5.1 1.7-7.8 2.1 3.6-0.5 7.2-1 10.8-1.4-3.1 0.4-6.1 0.4-9.2 0 3.6 0.5 7.2 1 10.8 1.4-2.7-0.4-5.2-1.1-7.8-2.2 3.2 1.4 6.5 2.7 9.7 4.1-2.6-1.1-4.9-2.5-7.1-4.1 2.7 2.1 5.5 4.2 8.2 6.3-5-4-8.9-9.6-13-14.6-7.4-9.1-14.8-18.1-22.2-27.2-17.2-21-34.4-42-51.6-63.1-4-4.9-8-9.7-11.9-14.6-7.9-9.7-22.4-12.7-34-11.1-5.4 0.2-10.4 1.8-15.1 4.8-6.1 3.6-10.9 8.4-14.5 14.5l-45 58.8-71.7 93.6c-5.5 7.1-10.9 14.3-16.4 21.4-5.9 7.7-6.5 22.3-4.1 31.2 2.6 9.4 9.9 19.6 18.6 24.2 9.4 5 20.8 7.5 31.2 4.1 3.2-1.4 6.5-2.7 9.7-4.1 5.5-3.3 10.4-8.1 14-14.2z" p-id="8152"></path><path d="M182.4 746.3l45-58.8 71.7-93.6c5.5-7.1 10.9-14.3 16.4-21.4-21.2 2.7-42.4 5.5-63.6 8.2 12.6 15.4 25.1 30.7 37.7 46.1 17.1 20.9 34.2 41.9 51.3 62.8 1.4 1.8 2.8 3.5 4.3 5.3 4 4.7 9.1 8.5 14.1 12 2.1 1.5 4.3 2.7 6.7 3.8 5.2 2.4 10.6 4.9 16.3 6 21.6 4.2 43 0.3 60.6-13.3 4.2-3.2 7.8-6.4 11.1-10.4 15.8-19.2 31.5-38.3 47.3-57.5 14.7-17.9 29.7-35.6 44.2-53.8 0.3-0.3 0.5-0.7 0.8-1H489c13.2 15.8 26.4 31.7 39.6 47.5 17.7 21.3 35.4 42.6 53.2 63.9 1.4 1.6 2.7 3.3 4.1 4.9 12.6 14.7 31.4 21.8 50.2 23.2 22.5 1.7 43.7-9.6 58.4-25.9 17.8-19.9 35.7-39.8 53.5-59.7 15.8-17.7 31.9-35.1 47.5-53 0.3-0.3 0.6-0.6 0.9-1-21.2-2.7-42.4-5.5-63.6-8.2 12.3 19.6 24.6 39.2 36.8 58.8 19.6 31.2 39.1 62.4 58.7 93.6 4.5 7.1 8.9 14.3 13.4 21.4 5.5 8.8 14.1 15.8 24.2 18.6 9.7 2.7 22.6 1.5 31.2-4.1 8.7-5.6 16.3-13.9 18.6-24.2 2.4-10.4 1.8-21.9-4.1-31.2-12.3-19.6-24.6-39.2-36.8-58.8-19.6-31.2-39.1-62.4-58.7-93.6-4.5-7.1-8.9-14.3-13.4-21.4-6.9-10.9-16.9-17.6-29.6-19.3-12.1-1.6-25.5 1.7-34 11.1l-36.6 40.8-57 63.6c-5.1 5.7-10 12.2-16 17 2.7-2.1 5.5-4.2 8.2-6.3-2.3 1.7-4.6 3-7.2 4.1 3.2-1.4 6.5-2.7 9.7-4.1-2.6 1-5.1 1.6-7.8 2 3.6-0.5 7.2-1 10.8-1.4-2.7 0.3-5.3 0.3-8.1 0 3.6 0.5 7.2 1 10.8 1.4-2.7-0.4-5.3-1.1-7.8-2 3.2 1.4 6.5 2.7 9.7 4.1-2.6-1.1-4.9-2.4-7.2-4.1 2.7 2.1 5.5 4.2 8.2 6.3-5.1-4-9.1-9.6-13.3-14.6-7.6-9.1-15.2-18.2-22.8-27.4-17.9-21.5-35.7-42.9-53.6-64.4-4.2-5-8.4-10-12.5-15.1-6-7.2-19.5-12.3-28.6-11.9-10.1 0.5-21.9 3.7-28.6 11.9-28 34.1-56.1 68.1-84.1 102.2-4.8 5.8-9.4 12.6-15.3 17.3 2.7-2.1 5.5-4.2 8.2-6.3-2.3 1.7-4.6 3-7.1 4.1 3.2-1.4 6.5-2.7 9.7-4.1-2.5 1-5.1 1.7-7.8 2.1 3.6-0.5 7.2-1 10.8-1.4-3.1 0.4-6.1 0.4-9.2 0 3.6 0.5 7.2 1 10.8 1.4-2.7-0.4-5.2-1.1-7.8-2.2 3.2 1.4 6.5 2.7 9.7 4.1-2.6-1.1-4.9-2.5-7.1-4.1 2.7 2.1 5.5 4.2 8.2 6.3-5-4-8.9-9.6-13-14.6-7.4-9.1-14.8-18.1-22.2-27.2-17.2-21-34.4-42-51.6-63.1-4-4.9-8-9.7-11.9-14.6-7.9-9.7-22.4-12.7-34-11.1-5.4 0.2-10.4 1.8-15.1 4.8-6.1 3.6-10.9 8.4-14.5 14.5l-45 58.8-71.7 93.6c-5.5 7.1-10.9 14.3-16.4 21.4-5.9 7.7-6.5 22.3-4.1 31.2 2.6 9.4 9.9 19.6 18.6 24.2 9.4 5 20.8 7.5 31.2 4.1 3.2-1.4 6.5-2.7 9.7-4.1 5.5-3.3 10.4-8.1 14-14.2z" p-id="8153"></path></svg>
