<svg t="1622085616797" class="icon" viewBox="0 0 1024 1024" version="1.1" xmlns="http://www.w3.org/2000/svg" p-id="7215" width="200" height="200"><path d="M329.7 522.9c-8.1 0-16.2-0.6-24.3-1.6 3.5 0.5 7 0.9 10.5 1.4-16-2.2-31.6-6.4-46.5-12.6 3.1 1.3 6.3 2.6 9.4 4-14.5-6.1-28.2-14.1-40.7-23.7 2.7 2.1 5.3 4.1 8 6.2-12.7-9.8-24.1-21.2-33.9-33.9 2.1 2.7 4.1 5.3 6.2 8-9.6-12.5-17.5-26.2-23.7-40.7 1.3 3.1 2.6 6.3 4 9.4-6.2-14.9-10.4-30.5-12.6-46.5 0.5 3.5 0.9 7 1.4 10.5-2.1-16.1-2.1-32.4 0-48.5-0.5 3.5-0.9 7-1.4 10.5 2.2-16 6.4-31.6 12.6-46.5-1.3 3.1-2.6 6.3-4 9.4 6.1-14.5 14.1-28.2 23.7-40.7-2.1 2.7-4.1 5.3-6.2 8 9.8-12.7 21.2-24.1 33.9-33.9-2.7 2.1-5.3 4.1-8 6.2 12.5-9.6 26.2-17.5 40.7-23.7-3.1 1.3-6.3 2.6-9.4 4 14.9-6.2 30.5-10.4 46.5-12.6-3.5 0.5-7 0.9-10.5 1.4 16.1-2.1 32.4-2.1 48.5 0-3.5-0.5-7-0.9-10.5-1.4 16 2.2 31.6 6.4 46.5 12.6-3.1-1.3-6.3-2.6-9.4-4 14.5 6.1 28.2 14.1 40.7 23.7-2.7-2.1-5.3-4.1-8-6.2 12.7 9.8 24.1 21.2 33.9 33.9-2.1-2.7-4.1-5.3-6.2-8 9.6 12.5 17.5 26.2 23.7 40.7-1.3-3.1-2.6-6.3-4-9.4 6.2 14.9 10.4 30.5 12.6 46.5-0.5-3.5-0.9-7-1.4-10.5 1 8.1 1.6 16.1 1.6 24.3 0 10.1 4.4 20.7 11.5 27.8 6.8 6.8 18 12 27.8 11.5 10.2-0.5 20.7-3.8 27.8-11.5 7.1-7.7 11.6-17.2 11.5-27.8-0.1-35.7-8.8-70.4-24.9-102.2-15.6-30.9-39-56.4-66.3-77.2-53.6-40.8-127.2-53.1-191.7-34.9-33.4 9.4-63.8 26.8-89.6 49.9-25.9 23.1-44.5 52.4-57.5 84.3-25.4 62.3-18.2 137.1 16.4 194.5 17.8 29.5 42.2 54.2 70.9 73 14.4 9.5 30.3 16.7 46.5 22.6 16.8 6.2 34.1 9.2 51.8 11.3 7.3 0.9 14.6 1.3 21.9 1.3 10.1 0 20.7-4.4 27.8-11.5 6.8-6.8 12-18 11.5-27.8-0.7-21.6-17.1-39.5-39.1-39.6z" p-id="7216"></path><path d="M554 380.9c-0.1-8.9 0.5-17.8 1.7-26.6-0.5 3.5-0.9 7-1.4 10.5 2.2-15.6 6.3-30.7 12.3-45.2-1.3 3.1-2.6 6.3-4 9.4 6.1-14.5 14.1-28.1 23.6-40.6-2.1 2.7-4.1 5.3-6.2 8 9.6-12.4 20.7-23.5 33-33.1-2.7 2.1-5.3 4.1-8 6.2 12.5-9.6 26.1-17.6 40.6-23.7-3.1 1.3-6.3 2.6-9.4 4 14.5-6.1 29.7-10.2 45.3-12.4-3.5 0.5-7 0.9-10.5 1.4 16.5-2.2 33.2-2.2 49.7 0-3.5-0.5-7-0.9-10.5-1.4 15.6 2.2 30.7 6.3 45.2 12.3-3.1-1.3-6.3-2.6-9.4-4 14.5 6.1 28.1 14.1 40.6 23.6-2.7-2.1-5.3-4.1-8-6.2 12.4 9.6 23.5 20.7 33.1 33-2.1-2.7-4.1-5.3-6.2-8 9.6 12.5 17.6 26.1 23.7 40.6-1.3-3.1-2.6-6.3-4-9.4 6.1 14.5 10.2 29.7 12.4 45.3-0.5-3.5-0.9-7-1.4-10.5 2.2 16.5 2.2 33.2 0 49.7 0.5-3.5 0.9-7 1.4-10.5-2.2 15.6-6.3 30.7-12.3 45.2 1.3-3.1 2.6-6.3 4-9.4-6.1 14.5-14.1 28.1-23.6 40.6 2.1-2.7 4.1-5.3 6.2-8-9.6 12.4-20.7 23.5-33 33.1 2.7-2.1 5.3-4.1 8-6.2-12.5 9.6-26.1 17.6-40.6 23.7 3.1-1.3 6.3-2.6 9.4-4-14.5 6.1-29.7 10.2-45.3 12.4 3.5-0.5 7-0.9 10.5-1.4-7.6 1-15.3 1.6-23 1.7-10.2 0.1-20.6 4.3-27.8 11.5-6.8 6.8-12 18-11.5 27.8 0.5 10.2 3.8 20.7 11.5 27.8 7.6 7 17.2 11.7 27.8 11.5 35.4-0.5 69.9-9.3 101.3-25.6 30.4-15.7 55.3-39 75.7-66.1 40.2-53.5 52-127.3 33.1-191.2-9.7-32.8-27-62.8-50-88.1-23.1-25.4-52.1-43.5-83.7-56.3-13.5-5.4-27.5-9.2-41.9-11.3-17.9-2.6-35.5-4.1-53.5-2.4-34.7 3.2-68.3 13.2-98.1 31.6-29 17.9-53.5 42.3-71.9 71.1-18.8 29.5-28.9 62.8-32.7 97.4-0.8 7.3-1.1 14.6-1.1 21.9 0.1 10.1 4.3 20.6 11.5 27.8 6.8 6.8 18 12 27.8 11.5 10.2-0.5 20.7-3.8 27.8-11.5 7.3-7.4 11.9-16.9 11.8-27.5z" p-id="7217"></path><path d="M512.9 867.5c-24.8 0-45-20.2-45-45V345.7c0-24.7 20.2-45 45-45 24.7 0 45 20.2 45 45v476.8c0 24.8-20.2 45-45 45z" p-id="7218"></path></svg>
