<svg t="1622085578913" class="icon" viewBox="0 0 1024 1024" version="1.1" xmlns="http://www.w3.org/2000/svg" p-id="6948" width="200" height="200"><path d="M807.5 690.7c0 7.2-0.5 14.4-1.4 21.5 0.5-3.9 1-7.7 1.6-11.6-1.9 13.9-5.6 27.3-10.9 40.3 1.5-3.5 2.9-7 4.4-10.4-5.5 13-12.6 25.1-21.2 36.3 2.3-2.9 4.6-5.9 6.8-8.8-8.4 10.7-18 20.3-28.7 28.7 2.9-2.3 5.9-4.6 8.8-6.8-11.2 8.6-23.3 15.7-36.3 21.2 3.5-1.5 7-2.9 10.4-4.4-12.9 5.3-26.4 9-40.3 10.9 3.9-0.5 7.7-1 11.6-1.6-14.3 1.9-28.8 1.9-43.1 0 3.9 0.5 7.7 1 11.6 1.6-13.9-1.9-27.3-5.6-40.3-10.9 3.5 1.5 7 2.9 10.4 4.4-13-5.5-25.1-12.6-36.3-21.2 2.9 2.3 5.9 4.6 8.8 6.8-10.7-8.4-20.3-18-28.7-28.7 2.3 2.9 4.6 5.9 6.8 8.8-8.6-11.2-15.7-23.3-21.2-36.3 1.5 3.5 2.9 7 4.4 10.4-5.3-12.9-9-26.4-10.9-40.3 0.5 3.9 1 7.7 1.6 11.6-1.9-14.3-1.9-28.8 0-43.1-0.5 3.9-1 7.7-1.6 11.6 1.9-13.9 5.6-27.3 10.9-40.3-1.5 3.5-2.9 7-4.4 10.4 5.5-13 12.6-25.1 21.2-36.3-2.3 2.9-4.6 5.9-6.8 8.8 8.4-10.7 18-20.3 28.7-28.7-2.9 2.3-5.9 4.6-8.8 6.8 11.2-8.6 23.3-15.7 36.3-21.2-3.5 1.5-7 2.9-10.4 4.4 12.9-5.3 26.4-9 40.3-10.9-3.9 0.5-7.7 1-11.6 1.6 15.3-2 30.7-1.8 45.9 0.2-3.9-0.5-7.7-1-11.6-1.6 14.4 2 28.5 5.7 41.9 11.3-3.5-1.5-7-2.9-10.4-4.4 12 5.1 23.3 11.6 33.7 19.5-2.9-2.3-5.9-4.6-8.8-6.8 10.2 7.9 19.2 16.9 27.1 27-2.3-2.9-4.6-5.9-6.8-8.8 8.2 10.6 14.9 22.2 20.1 34.5-1.5-3.5-2.9-7-4.4-10.4 5.7 13.6 9.5 27.9 11.5 42.5-0.5-3.9-1-7.7-1.6-11.6 1.2 8.1 1.7 16.1 1.7 24 0 11.2 4.8 23 12.8 30.9 7.6 7.6 20 13.3 30.9 12.8 11.3-0.5 23-4.2 30.9-12.8 7.8-8.5 12.8-19.1 12.8-30.9-0.1-39.7-10.6-80.8-32.8-114.1-10.6-15.8-23-30.9-37.9-42.8-8.7-7-17.6-13.8-27.3-19.5-10-5.8-20.8-10.4-31.5-14.6-18.9-7.4-39.2-10.8-59.4-12.5-21.2-1.7-43.1 0.4-63.8 5.3-38.6 9.1-75.7 31.1-102.1 60.8-13.3 15-25.2 31.6-33.4 49.9-4.9 10.9-9.5 22-12.7 33.6-3.2 11.6-4.8 23.6-6.1 35.6-4.6 40.8 5.6 83.8 25.8 119.4 19.5 34.4 50.5 64.4 86.3 81.4 20.6 9.8 41 16.2 63.6 19.3 23.2 3.1 45.3 2.2 68.4-2 39.4-7.3 77.2-28.6 105-57.3 27.7-28.6 48.4-66.4 54.5-106 1.9-12.1 3.4-24.2 3.5-36.4 0-11.2-4.9-23-12.8-30.9-7.6-7.6-20-13.3-30.9-12.8-23.8 1-43.7 19.1-43.8 43.6z m-357-357c0 7.2-0.5 14.4-1.4 21.5 0.5-3.9 1-7.7 1.6-11.6-1.9 13.9-5.6 27.3-10.9 40.3 1.5-3.5 2.9-7 4.4-10.4-5.5 13-12.6 25.1-21.2 36.3 2.3-2.9 4.6-5.9 6.8-8.8-8.4 10.7-18 20.3-28.7 28.7 2.9-2.3 5.9-4.6 8.8-6.8-11.2 8.6-23.3 15.7-36.3 21.2 3.5-1.5 7-2.9 10.4-4.4-12.9 5.3-26.4 9-40.3 10.9 3.9-0.5 7.7-1 11.6-1.6-14.3 1.9-28.8 1.9-43.1 0 3.9 0.5 7.7 1 11.6 1.6-13.9-1.9-27.3-5.6-40.3-10.9 3.5 1.5 7 2.9 10.4 4.4-13-5.5-25.1-12.6-36.3-21.2 2.9 2.3 5.9 4.6 8.8 6.8-10.7-8.4-20.3-18-28.7-28.7 2.3 2.9 4.6 5.9 6.8 8.8-8.6-11.2-15.7-23.3-21.2-36.3 1.5 3.5 2.9 7 4.4 10.4-5.3-12.9-9-26.4-10.9-40.3 0.5 3.9 1 7.7 1.6 11.6-1.9-14.3-1.9-28.8 0-43.1-0.5 3.9-1 7.7-1.6 11.6 1.9-13.9 5.6-27.3 10.9-40.3-1.5 3.5-2.9 7-4.4 10.4 5.5-13 12.6-25.1 21.2-36.3-2.3 2.9-4.6 5.9-6.8 8.8 8.4-10.7 18-20.3 28.7-28.7-2.9 2.3-5.9 4.6-8.8 6.8 11.2-8.6 23.3-15.7 36.3-21.2-3.5 1.5-7 2.9-10.4 4.4 12.9-5.3 26.4-9 40.3-10.9-3.9 0.5-7.7 1-11.6 1.6 14.3-1.9 28.8-1.9 43.1 0-3.9-0.5-7.7-1-11.6-1.6 13.9 1.9 27.3 5.6 40.3 10.9-3.5-1.5-7-2.9-10.4-4.4 13 5.5 25.1 12.6 36.3 21.2-2.9-2.3-5.9-4.6-8.8-6.8 10.7 8.4 20.3 18 28.7 28.7-2.3-2.9-4.6-5.9-6.8-8.8 8.6 11.2 15.7 23.3 21.2 36.3-1.5-3.5-2.9-7-4.4-10.4 5.3 12.9 9 26.4 10.9 40.3-0.5-3.9-1-7.7-1.6-11.6 0.9 7.2 1.3 14.3 1.4 21.6 0 11.2 4.8 23 12.8 30.9 7.6 7.6 20 13.3 30.9 12.8 11.3-0.5 23-4.2 30.9-12.8 7.8-8.5 12.9-19.1 12.8-30.9-0.2-40.4-12.1-82.1-35.7-115.1-6.8-9.5-14.1-18.9-22.3-27.4-7.9-8.2-16.8-15.1-25.9-22.1-16-12.3-33.9-21-52.8-28-38.6-14.4-83.6-15.1-123.1-3.8-37.9 10.8-74.1 33.2-99.2 63.8-7.3 8.9-14.4 18.2-20.4 28.1-6 10.1-10.7 20.8-15.1 31.6-7.8 19.1-11.5 39.4-13.2 60-3.2 40.5 7.5 83.2 28.5 117.9 20.4 33.7 51.4 63 87.6 79.2 10.5 4.7 21.2 9.2 32.3 12.3 11.8 3.3 24 5 36.2 6.4 20.8 2.4 42 0.5 62.5-3.7 38.8-7.9 76.1-29.2 103.3-57.7 27.4-28.7 47.8-66.3 53.7-105.8 1.8-11.9 3.3-23.7 3.4-35.8 0-11.2-4.9-23-12.8-30.9-7.6-7.6-20-13.3-30.9-12.8-23.6 1.1-43.4 19.2-43.5 43.8z" p-id="6949"></path><path d="M273.5 233.1c15-8.2 30.4-15.6 46.1-22.3-3.5 1.5-7 2.9-10.4 4.4 42-17.7 86.1-29.7 131.2-35.9-3.9 0.5-7.7 1-11.6 1.6 45.9-6.1 92.4-6.1 138.3-0.1-3.9-0.5-7.7-1-11.6-1.6 44.8 6.1 88.7 18 130.4 35.4-3.5-1.5-7-2.9-10.4-4.4 41.2 17.4 80 40 115.4 67.3-2.9-2.3-5.9-4.6-8.8-6.8 14.7 11.4 28.9 23.6 42.3 36.6 8.2 7.9 19.5 12.8 30.9 12.8 10.7 0 23.5-4.8 30.9-12.8 7.6-8.3 13.3-19.3 12.8-30.9-0.5-11.5-4.3-22.8-12.8-30.9-63.8-61.3-141.6-107.2-226.3-132.9-90.6-27.5-188-30.6-280.5-11-52.3 11.1-103.1 30.5-149.9 56-9.5 5.2-17.3 15.9-20.1 26.1-2.9 10.5-1.6 24.4 4.4 33.7 13 20.4 38.2 27.4 59.7 15.7z m477 557.8c-15 8.2-30.4 15.6-46.1 22.3 3.5-1.5 7-2.9 10.4-4.4-42 17.7-86.1 29.7-131.2 35.9 3.9-0.5 7.7-1 11.6-1.6-45.9 6.1-92.4 6.1-138.3 0.1 3.9 0.5 7.7 1 11.6 1.6-44.8-6.1-88.7-18-130.4-35.4 3.5 1.5 7 2.9 10.4 4.4-41.2-17.4-80-40-115.4-67.3 2.9 2.3 5.9 4.6 8.8 6.8-14.7-11.4-28.9-23.6-42.3-36.6-8.2-7.9-19.5-12.8-30.9-12.8-10.7 0-23.5 4.8-30.9 12.8-7.6 8.3-13.3 19.3-12.8 30.9 0.5 11.5 4.3 22.8 12.8 30.9 63.8 61.3 141.6 107.2 226.3 132.9 90.6 27.5 188 30.6 280.5 11 52.3-11.1 103.1-30.5 149.9-56 9.5-5.2 17.3-15.9 20.1-26.1 2.9-10.5 1.6-24.4-4.4-33.7-13-20.4-38.2-27.4-59.7-15.7z" p-id="6950"></path></svg>
