<svg t="1622085625412" class="icon" viewBox="0 0 1024 1024" version="1.1" xmlns="http://www.w3.org/2000/svg" p-id="7349" width="200" height="200"><path d="M357.4 466.5V290.6c0-11.7-0.3-23.5 1.1-35.1-0.6 4.2-1.1 8.4-1.7 12.6 1.7-12.3 4.9-24.1 9.7-35.6-1.6 3.8-3.2 7.5-4.8 11.3 4.6-10.7 10.5-20.7 17.5-30-2.5 3.2-4.9 6.4-7.4 9.6 7.4-9.5 15.9-18 25.4-25.4-3.2 2.5-6.4 4.9-9.6 7.4 9.3-7 19.3-12.9 30-17.5-3.8 1.6-7.5 3.2-11.3 4.8 11.4-4.8 23.3-8 35.6-9.7-4.2 0.6-8.4 1.1-12.6 1.7 11.7-1.4 23.4-1.4 35.1 0-4.2-0.6-8.4-1.1-12.6-1.7 12.3 1.7 24.1 4.9 35.6 9.7-3.8-1.6-7.5-3.2-11.3-4.8 10.7 4.6 20.7 10.5 30 17.5-3.2-2.5-6.4-4.9-9.6-7.4 9.5 7.4 18 15.9 25.4 25.4-2.5-3.2-4.9-6.4-7.4-9.6 7 9.3 12.9 19.3 17.5 30-1.6-3.8-3.2-7.5-4.8-11.3 4.8 11.4 8 23.3 9.7 35.6-0.6-4.2-1.1-8.4-1.7-12.6 1.5 11.8 1.1 23.7 1.1 35.6v223.8c0 12.1 5.3 24.9 13.9 33.5 8.2 8.2 21.7 14.4 33.5 13.9 12.2-0.5 24.9-4.6 33.5-13.9 8.5-9.3 13.9-20.6 13.9-33.5V299c0-22.8 0.1-44.9-4.8-67.5-11.2-51.6-48.4-99.3-95.9-122.4C504 96.4 476.1 89 446.8 89c-29.6 0-58.2 7.6-84.6 20.8-46.9 23.4-83.5 70.6-94.7 121.8-5.3 24.4-4.8 48.4-4.8 73.1v161.8c0 12.1 5.3 24.9 13.9 33.5 8.2 8.2 21.7 14.4 33.5 13.9 12.2-0.5 24.9-4.6 33.5-13.9 8.5-9.3 13.8-20.7 13.8-33.5z" p-id="7350"></path><path d="M173.9 184.2c5.9 0 11.7 0.4 17.5 1.1-4.2-0.6-8.4-1.1-12.6-1.7 12.3 1.7 24.1 4.9 35.6 9.7-3.8-1.6-7.5-3.2-11.3-4.8 10.7 4.6 20.7 10.5 30 17.5-3.2-2.5-6.4-4.9-9.6-7.4 9.5 7.4 18 15.9 25.4 25.4-2.5-3.2-4.9-6.4-7.4-9.6 7 9.3 12.9 19.3 17.5 30-1.6-3.8-3.2-7.5-4.8-11.3 4.8 11.4 8 23.3 9.7 35.6-0.6-4.2-1.1-8.4-1.7-12.6 1.3 10.3 1.1 20.6 1.1 30.9v180c0 12.1 5.3 24.9 13.9 33.5 8.2 8.2 21.7 14.4 33.5 13.9 12.2-0.5 24.9-4.6 33.5-13.9 8.5-9.3 13.9-20.6 13.9-33.5V277c0-38-10.3-77.3-33.1-108.2-17.5-23.7-38.6-44.4-65.1-57.9-26.6-13.6-55.8-21.4-85.8-21.4-12.1 0-24.9 5.3-33.5 13.9-8.2 8.2-14.4 21.7-13.9 33.5 0.5 12.2 4.6 24.9 13.9 33.5 9.1 8.4 20.5 13.8 33.3 13.8z m457.5 303.4c0-5.8 0.4-11.7 1.1-17.5-0.6 4.2-1.1 8.4-1.7 12.6 1.6-11.7 4.7-23.1 9.2-34-1.6 3.8-3.2 7.5-4.8 11.3 4.5-10.6 10.3-20.6 17.3-29.7-2.5 3.2-4.9 6.4-7.4 9.6 7.1-9 15.1-17.1 24.2-24.2-3.2 2.5-6.4 4.9-9.6 7.4 9.2-7 19.1-12.8 29.7-17.3-3.8 1.6-7.5 3.2-11.3 4.8 10.9-4.5 22.3-7.6 34-9.2-4.2 0.6-8.4 1.1-12.6 1.7 11.6-1.5 23.3-1.5 34.9 0-4.2-0.6-8.4-1.1-12.6-1.7 11.7 1.6 23.1 4.7 34 9.2-3.8-1.6-7.5-3.2-11.3-4.8 10.6 4.5 20.6 10.3 29.7 17.3-3.2-2.5-6.4-4.9-9.6-7.4 9 7.1 17.1 15.1 24.2 24.2-2.5-3.2-4.9-6.4-7.4-9.6 7 9.2 12.8 19.1 17.3 29.7-1.6-3.8-3.2-7.5-4.8-11.3 4.5 10.9 7.6 22.3 9.2 34-0.6-4.2-1.1-8.4-1.7-12.6 1.5 11.6 1.5 23.3 0 34.9 0.6-4.2 1.1-8.4 1.7-12.6-1.6 11.7-4.7 23.1-9.2 34 1.6-3.8 3.2-7.5 4.8-11.3-4.5 10.6-10.3 20.6-17.3 29.7 2.5-3.2 4.9-6.4 7.4-9.6-7.1 9-15.1 17.1-24.2 24.2 3.2-2.5 6.4-4.9 9.6-7.4-9.2 7-19.1 12.8-29.7 17.3 3.8-1.6 7.5-3.2 11.3-4.8-10.9 4.5-22.3 7.6-34 9.2 4.2-0.6 8.4-1.1 12.6-1.7-11.6 1.5-23.3 1.5-34.9 0 4.2 0.6 8.4 1.1 12.6 1.7-11.7-1.6-23.1-4.7-34-9.2 3.8 1.6 7.5 3.2 11.3 4.8-10.6-4.5-20.6-10.3-29.7-17.3 3.2 2.5 6.4 4.9 9.6 7.4-9-7.1-17.1-15.1-24.2-24.2 2.5 3.2 4.9 6.4 7.4 9.6-7-9.2-12.8-19.1-17.3-29.7 1.6 3.8 3.2 7.5 4.8 11.3-4.5-10.9-7.6-22.3-9.2-34 0.6 4.2 1.1 8.4 1.7 12.6-0.7-5.8-1.1-11.6-1.1-17.4-0.1-12.2-5.2-24.8-13.9-33.5-8.2-8.2-21.7-14.4-33.5-13.9-12.2 0.5-24.9 4.6-33.5 13.9-8.5 9.2-13.9 20.7-13.9 33.5 0.2 35.4 10.5 72.3 31.2 101.2 6.2 8.6 12.7 17.2 20.1 24.8 7.3 7.5 15.5 13.9 23.9 20.2 14.1 10.6 29.7 18 46.2 24.1 33.7 12.5 73.3 13 107.7 3.3 33.2-9.4 65.4-29 87.4-55.8 6.6-8 13.1-16.3 18.5-25.3 5.5-9.1 9.5-18.8 13.6-28.6 7-16.9 10.1-34.9 11.6-53.1 1.5-18.3-0.7-37.3-5-55-4.1-16.9-11.1-33.7-20.1-48.5-8.8-14.6-19.9-28.7-32.7-40.1-13-11.6-27.5-22.3-43.5-29.5-9.6-4.3-19.5-8.6-29.7-11.5-10.7-3-21.8-4.5-32.8-5.7-18.2-2.1-36.6-0.3-54.5 3.3-17.1 3.4-34 10.2-49.3 18.6-15.2 8.4-29.6 19.5-41.6 32s-22.9 27.1-30.7 42.6c-7.8 15.8-14.3 32.6-17 50-1.7 10.9-3.2 21.8-3.2 32.9-0.1 12.1 5.3 24.9 13.9 33.5 8.2 8.2 21.7 14.4 33.5 13.9 25.7-1.2 47.1-20.8 47.3-47.3z" p-id="7351"></path><path d="M535.7 519.1c0 16.8-1.2 33.5-3.4 50.1 0.6-4.2 1.1-8.4 1.7-12.6-4.5 32.2-13.1 63.7-25.7 93.7 1.6-3.8 3.2-7.5 4.8-11.3-12.3 28.8-28.1 55.9-47.2 80.8 2.5-3.2 4.9-6.4 7.4-9.6-19.3 25-41.7 47.4-66.6 66.9 3.2-2.5 6.4-4.9 9.6-7.4-25.2 19.4-52.7 35.6-81.9 48.1 3.8-1.6 7.5-3.2 11.3-4.8-30.2 12.7-61.9 21.4-94.4 25.8 4.2-0.6 8.4-1.1 12.6-1.7-16.4 2.1-32.8 3.2-49.4 3.3-12.2 0-24.9 5.3-33.5 13.9-8.2 8.2-14.4 21.7-13.9 33.5 0.5 12.2 4.6 24.9 13.9 33.5 9.2 8.5 20.7 13.9 33.5 13.9 88.6-0.2 177.8-28.7 248.4-82.7 16.9-13 33.2-26.4 48.2-41.6 15.2-15.5 28.9-32.5 41.7-50 23.5-32.1 41.4-68.1 54.7-105.6 15.4-43.3 22.8-90.1 22.9-136 0-12.1-5.3-24.9-13.9-33.5-8.2-8.2-21.7-14.4-33.5-13.9-25.7 1-47.3 20.7-47.3 47.2z" p-id="7352"></path></svg>
