<svg t="1622085679893" class="icon" viewBox="0 0 1024 1024" version="1.1" xmlns="http://www.w3.org/2000/svg" p-id="7751" width="200" height="200"><path d="M433.8 710c0 7.2-0.5 14.3-1.4 21.5 0.5-3.6 1-7.3 1.5-10.9-2 14.6-5.8 28.9-11.6 42.5 1.4-3.3 2.8-6.5 4.1-9.8-5.5 12.9-12.6 25-21.2 36.1 2.1-2.8 4.3-5.5 6.4-8.3-8.6 11-18.4 20.8-29.4 29.4 2.8-2.1 5.5-4.3 8.3-6.4-11.1 8.5-23.2 15.6-36.1 21.2 3.3-1.4 6.5-2.8 9.8-4.1-13.6 5.7-27.8 9.6-42.5 11.6 3.6-0.5 7.3-1 10.9-1.5-14.3 1.8-28.7 1.8-42.9 0 3.6 0.5 7.3 1 10.9 1.5-14.6-2-28.9-5.8-42.5-11.6 3.3 1.4 6.5 2.8 9.8 4.1-12.9-5.5-25-12.6-36.1-21.2 2.8 2.1 5.5 4.3 8.3 6.4-11-8.6-20.8-18.4-29.4-29.4 2.1 2.8 4.3 5.5 6.4 8.3-8.5-11.1-15.6-23.2-21.2-36.1 1.4 3.3 2.8 6.5 4.1 9.8-5.7-13.6-9.6-27.8-11.6-42.5 0.5 3.6 1 7.3 1.5 10.9-1.8-14.3-1.8-28.7 0-42.9-0.5 3.6-1 7.3-1.5 10.9 2-14.6 5.8-28.9 11.6-42.5-1.4 3.3-2.8 6.5-4.1 9.8 5.5-12.9 12.6-25 21.2-36.1-2.1 2.8-4.3 5.5-6.4 8.3 8.6-11 18.4-20.8 29.4-29.4-2.8 2.1-5.5 4.3-8.3 6.4 11.1-8.5 23.2-15.6 36.1-21.2-3.3 1.4-6.5 2.8-9.8 4.1 13.6-5.7 27.8-9.6 42.5-11.6-3.6 0.5-7.3 1-10.9 1.5 14.6-1.9 29.3-1.8 43.8 0.1-3.6-0.5-7.3-1-10.9-1.5 14.4 2 28.4 5.9 41.8 11.5-3.3-1.4-6.5-2.8-9.8-4.1 12.7 5.5 24.5 12.4 35.5 20.8-2.8-2.1-5.5-4.3-8.3-6.4 11.1 8.6 21 18.5 29.7 29.5-2.1-2.8-4.3-5.5-6.4-8.3 8.6 11.2 15.7 23.4 21.3 36.3-1.4-3.3-2.8-6.5-4.1-9.8 5.6 13.3 9.4 27.2 11.4 41.5-0.5-3.6-1-7.3-1.5-10.9 1.1 7.6 1.6 15 1.6 22.5 0 10.5 4.5 21.5 12 29 7.1 7.1 18.8 12.5 29 12 10.6-0.5 21.6-4 29-12 7.3-8 12.1-17.9 12-29-0.2-42.9-13.7-86.6-39.8-120.8-7.5-9.8-15.1-19.2-24.1-27.7-8.6-8-18-15.4-27.7-22-19.2-13.1-41.6-22.8-64.2-28.2-22.4-5.3-46-7.4-68.9-4.6-11.9 1.4-23.6 3.1-35.1 6.3-10.8 3.1-21.2 7.4-31.5 11.9-35.4 15.7-65.4 43.6-86.2 76-43.2 67.2-41.9 161 5.4 225.9 6.6 9.1 13.5 18 21.4 26 7.9 8.1 16.6 15 25.6 21.9 15.7 12 33 20.5 51.5 27.6 37.7 14.4 80.9 15.6 119.8 5.8 37.5-9.4 73.3-30.6 99.3-59.2 26.2-28.8 45.7-65.4 51.4-104.2 1.7-11.6 3.2-23.1 3.2-34.8 0-10.5-4.6-21.6-12-29-7.1-7.1-18.8-12.5-29-12-22.4 1.1-41 18.1-41.1 41.1z" p-id="7752"></path><path d="M397.7 519.9l-0.9-1.2c2.1 2.8 4.3 5.5 6.4 8.3-13.8-17.9-25.2-37.4-34-58.2 1.4 3.3 2.8 6.5 4.1 9.8-8.7-20.9-14.7-42.7-17.8-65.1 0.5 3.6 1 7.3 1.5 10.9-3.2-23.6-3.2-47.4 0-71-0.5 3.6-1 7.3-1.5 10.9 3.1-22.4 9.1-44.2 17.8-65.1-1.4 3.3-2.8 6.5-4.1 9.8 8.8-20.7 20.1-40.2 33.8-58-2.1 2.8-4.3 5.5-6.4 8.3 13.7-17.6 29.5-33.5 47.2-47.2-2.8 2.1-5.5 4.3-8.3 6.4 17.8-13.7 37.3-25 58-33.8-3.3 1.4-6.5 2.8-9.8 4.1a261.8 261.8 0 0 1 65.1-17.8c-3.6 0.5-7.3 1-10.9 1.5 23.5-3.2 47.3-3.2 70.9 0-3.6-0.5-7.3-1-10.9-1.5 22.4 3.1 44.2 9.1 65.1 17.8-3.3-1.4-6.5-2.8-9.8-4.1 20.7 8.8 40.2 20.1 58 33.8-2.8-2.1-5.5-4.3-8.3-6.4 17.6 13.7 33.5 29.5 47.2 47.2-2.1-2.8-4.3-5.5-6.4-8.3 13.7 17.8 25 37.3 33.8 58-1.4-3.3-2.8-6.5-4.1-9.8a261.8 261.8 0 0 1 17.8 65.1c-0.5-3.6-1-7.3-1.5-10.9 2.4 17.7 2.6 35.5 2.3 53.3-0.2 12.9-0.9 25.8-2.6 38.6 0.5-3.6 1-7.3 1.5-10.9-2.7 19.9-8 39.3-15.8 57.8 1.4-3.3 2.8-6.5 4.1-9.8-10.4 24.4-24.7 47-40.8 68 2.1-2.8 4.3-5.5 6.4-8.3-21.9 28.4-47.2 54.1-73.6 78.2-15.9 14.5-15.8 43.5 0 58 17 15.6 41 15.5 58 0 39.3-35.8 76.7-75.7 104-121.6 17.9-29.9 31.4-63.3 36.4-97.9 4.7-32 6.5-65.2 3.1-97.3-5.2-50-21.1-98.6-49.7-140.2-27.7-40.3-64.2-74.5-107.6-97.5-44.7-23.7-95.1-36.3-145.8-35.6-50.4 0.7-100.5 14.2-144.4 39-42.8 24.2-79 59.3-105.6 100.5C292.3 270 277.3 319 273.5 369c-4.4 58.7 10.1 119.2 39.5 170.2 7.9 13.7 17.2 26.2 26.9 38.6 6 7.7 19.8 12 29 12 10.1 0 22.1-4.5 29-12 7.2-7.8 12.5-18.1 12-29-0.5-3.6-1-7.3-1.5-10.9-2.1-6.8-5.6-12.9-10.7-18z" p-id="7753"></path><path d="M840.7 812.7c-2.5 4.1-5.2 8.1-8.2 12 2.1-2.8 4.3-5.5 6.4-8.3-6.7 8.6-14.4 16.3-23 23 2.8-2.1 5.5-4.3 8.3-6.4-8.5 6.5-17.8 11.9-27.6 16.2 3.3-1.4 6.5-2.8 9.8-4.1-10.5 4.4-21.5 7.5-32.9 9 3.6-0.5 7.3-1 10.9-1.5-11.2 1.4-22.4 1.4-33.5 0 3.6 0.5 7.3 1 10.9 1.5-11.5-1.6-22.8-4.6-33.5-9.1 3.3 1.4 6.5 2.8 9.8 4.1-10.5-4.5-20.3-10.2-29.4-17.1 2.8 2.1 5.5 4.3 8.3 6.4-8.9-7-16.9-14.9-23.9-23.9 2.1 2.8 4.3 5.5 6.4 8.3-7-9.1-12.9-19-17.4-29.6 1.4 3.3 2.8 6.5 4.1 9.8-4.1-9.8-6.9-20-8.4-30.5 0.5 3.6 1 7.3 1.5 10.9-1.4-10.7-1.4-21.5 0-32.2-0.5 3.6-1 7.3-1.5 10.9 1.6-11.8 4.9-23.2 9.5-34.2-1.4 3.3-2.8 6.5-4.1 9.8 5.5-12.9 12.8-24.9 21.3-36-2.1 2.8-4.3 5.5-6.4 8.3 9.1-11.7 19.5-22.2 30.8-31.7 7.6-6.4 12-19.4 12-29 0-10.1-4.5-22.1-12-29-7.8-7.2-18.1-12.5-29-12-11.4 0.5-20.3 4.7-29 12-30.6 25.8-54.9 59.7-67.1 98-5.6 17.5-8.3 36.9-7.4 55.3 0.6 10.7 2 21.5 4.5 31.8 2.6 10.8 6.8 20.9 11.3 31 7.6 17.2 19.2 33.1 32.1 46.7 12.4 12.9 27.3 24.3 43.2 32.4 15.7 8.1 32.7 14.6 50.3 17.2 10.4 1.6 20.7 3 31.2 2.9 10.7-0.1 21.4-1.6 31.9-3.4 19.5-3.4 39-11.4 55.6-22 22.5-14.3 41.2-33.4 55.1-56.2 5.5-9 6.9-21.5 4.1-31.6-2.6-9.5-10-19.8-18.8-24.5-20.1-10.4-44.3-4.7-56.2 14.8z" p-id="7754"></path></svg>
