<svg t="1622085740693" class="icon" viewBox="0 0 1024 1024" version="1.1" xmlns="http://www.w3.org/2000/svg" p-id="8284" width="200" height="200"><path d="M872 793.3H152c-24.7 0-45-20.2-45-45v-0.1c0-24.7 20.2-45 45-45h720c24.7 0 45 20.2 45 45v0.1c0 24.8-20.2 45-45 45z m0-198.4H596.7c-24.7 0-45-20.2-45-45v-0.1c0-24.7 20.2-45 45-45H872c24.7 0 45 20.2 45 45v0.1c0 24.8-20.2 45-45 45z m-424.3 0H152c-24.7 0-45-20.2-45-45v-0.1c0-24.7 20.2-45 45-45h295.7c24.7 0 45 20.2 45 45v0.1c-0.1 24.8-20.3 45-45 45z" p-id="8285"></path><path d="M432.6 515.9c-4.8-4.8-9.3-9.9-13.5-15.3l7.2 9.3c-8.4-10.9-15.3-22.7-20.7-35.4 1.5 3.7 3.1 7.3 4.6 11-5.4-13-9.1-26.5-11.1-40.4 0.5 4.1 1.1 8.1 1.6 12.2-1.9-14.3-1.9-28.6-0.1-42.9-0.5 4.1-1.1 8.1-1.6 12.2 1.9-14.1 5.7-27.9 11.2-41-1.5 3.7-3.1 7.3-4.6 11 5.3-12.4 12.1-24 20.3-34.7l-7.2 9.3c8.5-10.9 18.3-20.7 29.2-29.2l-9.3 7.2c10.7-8.2 22.3-15 34.7-20.3-3.7 1.5-7.3 3.1-11 4.6 13.2-5.5 26.9-9.3 41-11.2-4.1 0.5-8.1 1.1-12.2 1.6 14.1-1.8 28.4-1.8 42.5 0-4.1-0.5-8.1-1.1-12.2-1.6 14.1 1.9 27.9 5.7 41 11.2-3.7-1.5-7.3-3.1-11-4.6 12.4 5.3 24 12.1 34.7 20.3l-9.3-7.2c10.9 8.5 20.7 18.3 29.2 29.2l-7.2-9.3c8.2 10.7 15 22.3 20.3 34.7-1.5-3.7-3.1-7.3-4.6-11 5.5 13.2 9.3 26.9 11.2 41-0.5-4.1-1.1-8.1-1.6-12.2 1.8 14.3 1.8 28.6-0.1 42.9 0.5-4.1 1.1-8.1 1.6-12.2-2 13.9-5.7 27.4-11.1 40.4 1.5-3.7 3.1-7.3 4.6-11-5.4 12.6-12.3 24.4-20.7 35.3l7.2-9.3c-4.5 5.8-9.4 11.2-14.6 16.4-8.3 8.2-13.4 20.8-13.4 32.5 0 11.3 5 24.7 13.4 32.5 8.7 8 20.2 14 32.5 13.4 12.2-0.5 23.6-4.7 32.5-13.4 24.7-24.4 43.2-55.2 53.1-88.5 9.8-33 10.2-67.9 3.5-101.4-3.1-15.4-8.8-29.8-15.2-44.1-4.8-10.9-10.9-21.1-18-30.6-18.3-24.5-40.1-45.6-67.1-60.5-27.9-15.4-58.3-23.7-90-25.7-16.2-1-32.3 0.8-48.3 3.5-11.8 1.9-23.2 5.2-34.3 9.7-28.6 11.6-54.8 27.6-76.1 50.4-21.2 22.7-36.8 49.3-46.6 78.8-10.5 31.8-11.3 65.1-6.4 97.9 2.7 17.8 8.7 34.1 15.8 50.5 7 16.2 16.8 30.1 27.6 43.9 4.2 5.4 8.7 10.5 13.5 15.3 8.3 8.3 20.7 13.4 32.5 13.4 11.3 0 24.7-5 32.5-13.4 8-8.7 14-20.2 13.4-32.5-0.4-12.4-4.5-23.8-13.3-32.7z" p-id="8286"></path></svg>
