<svg t="1622085687363" class="icon" viewBox="0 0 1024 1024" version="1.1" xmlns="http://www.w3.org/2000/svg" p-id="7885" width="200" height="200"><path d="M207 921.8c49.1-41.5 92.8-89.5 128.3-143.3 32.6-49.4 57.7-105.2 70.8-163.1 14-61.7 15-124.5 4.1-186.7-10.3-58.1-33.1-114.5-63.4-165-32.7-54.4-74.8-103.6-121.9-145.9-5.9-5.3-11.8-10.5-17.9-15.6-9.2-7.8-19.1-13.1-31.6-13.1-11 0-24 4.9-31.6 13.1-7.8 8.5-13.6 19.7-13.1 31.6 0.5 11.3 4.1 24 13.1 31.6 35.5 30 68.2 63.2 96.7 99.9-2.3-3-4.7-6-7-9 27.1 35.2 50.2 73.4 67.5 114.3-1.5-3.6-3-7.1-4.5-10.7 14.7 35 24.9 71.7 30 109.3-0.5-4-1.1-7.9-1.6-11.9 4.8 36.3 4.8 73 0 109.3 0.5-4 1.1-7.9 1.6-11.9-5.1 37.6-15.4 74.3-30 109.3 1.5-3.6 3-7.1 4.5-10.7-17.3 40.9-40.4 79.2-67.5 114.3 2.3-3 4.7-6 7-9-28.5 36.7-61.2 70-96.7 99.9-8.3 7-13.1 21.1-13.1 31.6 0 11 4.9 24 13.1 31.6 8.5 7.8 19.7 13.6 31.6 13.1 12.4-0.5 22.1-5 31.6-13z m619.1-819.7c-49.1 41.5-92.8 89.5-128.3 143.3-32.6 49.4-57.7 105.2-70.8 163.1-14 61.7-15 124.5-4.1 186.7 10.3 58.2 33.1 114.6 63.5 165.1 32.7 54.4 74.8 103.6 122 146 5.9 5.3 11.8 10.5 17.9 15.6 9.2 7.8 19.1 13.1 31.6 13.1 11 0 24-4.9 31.6-13.1 7.8-8.5 13.6-19.7 13.1-31.6-0.5-11.3-4.1-24-13.1-31.6-35.5-30-68.3-63.2-96.8-100 2.3 3 4.7 6 7 9-27.2-35.2-50.3-73.4-67.6-114.4 1.5 3.6 3 7.1 4.5 10.7-14.7-35-24.9-71.7-30.1-109.3 0.5 4 1.1 7.9 1.6 11.9-4.8-36.3-4.8-73.1 0-109.3-0.5 4-1.1 7.9-1.6 11.9 5.1-37.6 15.4-74.3 30-109.3-1.5 3.6-3 7.1-4.5 10.7 17.3-40.9 40.4-79.2 67.5-114.3-2.3 3-4.7 6-7 9 28.5-36.7 61.2-70 96.7-99.9 8.3-7 13.1-21.1 13.1-31.6 0-11-4.9-24-13.1-31.6-8.5-7.8-19.7-13.6-31.6-13.1-12.3 0.5-22 5-31.5 13z" p-id="7886"></path><path d="M152 557h720c24.7 0 45-20.3 45-45s-20.3-45-45-45H152c-24.7 0-45 20.3-45 45 0 24.8 20.2 45 45 45z" p-id="7887"></path></svg>
