<svg t="1622085642207" class="icon" viewBox="0 0 1024 1024" version="1.1" xmlns="http://www.w3.org/2000/svg" p-id="7483" width="200" height="200"><path d="M862.3 215.9H554.5c-29.3 0-53.3-24-53.3-53.3 0-29.3 24-53.3 53.3-53.3h307.7c29.3 0 53.3 24 53.3 53.3 0 29.3-23.9 53.3-53.2 53.3z" p-id="7484"></path><path d="M915.5 162.6v307.7c0 29.3-24 53.3-53.3 53.3-29.3 0-53.3-24-53.3-53.3V162.6c0-29.3 24-53.3 53.3-53.3 29.4 0 53.3 24 53.3 53.3zM590.2 658.2L372.6 440.6c-20.7-20.7-20.7-54.6 0-75.3 20.7-20.7 54.6-20.7 75.3 0l217.6 217.6c20.7 20.7 20.7 54.6 0 75.3-20.7 20.8-54.6 20.8-75.3 0z" p-id="7485"></path><path d="M124 899.1c-20.7-20.7-20.7-54.6 0-75.3l698.9-698.9c20.7-20.7 54.6-20.7 75.3 0 20.7 20.7 20.7 54.6 0 75.3L199.3 899.1c-20.7 20.7-54.6 20.7-75.3 0z" p-id="7486"></path></svg>
