<svg t="1622085753684" class="icon" viewBox="0 0 1024 1024" version="1.1" xmlns="http://www.w3.org/2000/svg" p-id="8417" width="200" height="200"><path d="M301.8 794.7V332.1c0-19.6-0.1-39.2 0-58.9 0-4.8 0.4-9.6 1-14.4-0.5 4.1-1.1 8.2-1.6 12.3 1.3-8.7 3.6-17.1 7-25.3-1.6 3.7-3.1 7.3-4.7 11 3.6-8.3 8.1-16.1 13.7-23.3l-7.2 9.3c5.3-6.7 11.3-12.8 18.1-18.1l-9.3 7.2c7.2-5.5 15-10.1 23.3-13.7-3.7 1.6-7.3 3.1-11 4.7 8.1-3.4 16.6-5.7 25.3-7-4.1 0.5-8.2 1.1-12.3 1.6 9.5-1.3 18.9-1.3 28.4 0-4.1-0.5-8.2-1.1-12.3-1.6 8.7 1.3 17.1 3.6 25.3 7-3.7-1.6-7.3-3.1-11-4.7 8.3 3.6 16.1 8.1 23.3 13.7l-9.3-7.2c6.7 5.3 12.8 11.3 18.1 18.1l-7.2-9.3c5.5 7.2 10.1 15 13.7 23.3-1.6-3.7-3.1-7.3-4.7-11 3.4 8.1 5.7 16.6 7 25.3-0.5-4.1-1.1-8.2-1.6-12.3 1.1 8.4 1 16.8 1 25.2v444.6c0 21.7-0.3 43.4 0 65.1v1c0 11.8 5.1 24.3 13.5 32.6 8 8 21.1 14 32.6 13.5 11.9-0.5 24.3-4.5 32.6-13.5s13.5-20.1 13.5-32.6V285.5c0-15.6-0.6-30.5-3.8-46-11.1-52.5-54.6-96.3-106-110.1-51.9-14-110.6 2-147 41.9-26.1 28.6-40.4 65-40.4 103.8v519.5c0 11.8 5.1 24.3 13.5 32.6 8 8 21.1 14 32.6 13.5 11.9-0.5 24.3-4.5 32.6-13.5 8.1-8.9 13.3-20 13.3-32.5z" p-id="8418"></path><path d="M153.2 216.5c4.8 0 9.5 0.4 14.2 1-4.1-0.5-8.2-1.1-12.3-1.6 8.7 1.3 17.1 3.6 25.3 7-3.7-1.6-7.3-3.1-11-4.7 8.3 3.6 16.1 8.1 23.3 13.7l-9.3-7.2c6.7 5.3 12.8 11.3 18.1 18.1l-7.2-9.3c5.5 7.2 10.1 15 13.7 23.3-1.6-3.7-3.1-7.3-4.7-11 3.4 8.1 5.7 16.6 7 25.3-0.5-4.1-1.1-8.2-1.6-12.3 0.6 4.7 1 9.4 1 14.2 0.1 11.9 5.1 24.2 13.5 32.6 8 8 21.1 14 32.6 13.5 11.9-0.5 24.3-4.5 32.6-13.5s13.6-20.1 13.5-32.6c-0.3-39.3-16.1-77.8-44.1-105.5-27.6-27.2-65.7-43.1-104.5-43.1-11.8 0-24.3 5.1-32.6 13.5-8 8-14 21.1-13.5 32.6 0.5 11.9 4.5 24.3 13.5 32.6 8.9 8.2 20 13.4 32.5 13.4z m353.6 578.2V332.1c0-19.6-0.1-39.2 0-58.9 0-4.8 0.4-9.6 1-14.4-0.5 4.1-1.1 8.2-1.6 12.3 1.3-8.7 3.6-17.1 7-25.3-1.6 3.7-3.1 7.3-4.7 11 3.6-8.3 8.1-16.1 13.7-23.3l-7.2 9.3c5.3-6.7 11.3-12.8 18.1-18.1l-9.3 7.2c7.2-5.5 15-10.1 23.3-13.7-3.7 1.6-7.3 3.1-11 4.7 8.1-3.4 16.6-5.7 25.3-7-4.1 0.5-8.2 1.1-12.3 1.6 9.5-1.3 18.9-1.3 28.4 0-4.1-0.5-8.2-1.1-12.3-1.6 8.7 1.3 17.1 3.6 25.3 7-3.7-1.6-7.3-3.1-11-4.7 8.3 3.6 16.1 8.1 23.3 13.7l-9.3-7.2c6.7 5.3 12.8 11.3 18.1 18.1l-7.2-9.3c5.5 7.2 10.1 15 13.7 23.3-1.6-3.7-3.1-7.3-4.7-11 3.4 8.1 5.7 16.6 7 25.3-0.5-4.1-1.1-8.2-1.6-12.3 2.2 16.2 1 33.1 1 49.4V625c0 16.9-0.3 33.8 0 50.7v0.7c0 11.8 5.1 24.3 13.5 32.6 8 8 21.1 14 32.6 13.5 11.9-0.5 24.3-4.5 32.6-13.5s13.5-20.1 13.5-32.6V273.1c-0.1-24-6.1-46.3-16.5-67.8-10.9-22.4-28.4-40-48.2-54.6-10.1-7.4-21.2-12.3-32.8-17-12-4.9-24.1-6.7-36.9-8.4-20.9-2.7-43.7-0.1-63.4 7.6-23 9-44.5 21.6-60.8 40.5-24.6 28.4-38.5 63.1-38.6 100.9v520.5c0 11.8 5.1 24.3 13.5 32.6 8 8 21.1 14 32.6 13.5 11.9-0.5 24.3-4.5 32.6-13.5 8.1-9.1 13.3-20.2 13.3-32.7z" p-id="8419"></path><path d="M811 716.6l72.6-50.7c3.5-2.4 6.9-4.8 10.4-7.3-23.1-13.3-46.3-26.6-69.4-39.8v120.9c0 8.6 0.1 17.1-1 25.6 0.5-4.1 1.1-8.2 1.6-12.3-1.3 8.7-3.6 17.1-7 25.3 1.6-3.7 3.1-7.3 4.7-11-3.6 8.3-8.1 16.1-13.7 23.3l7.2-9.3c-5.3 6.7-11.3 12.8-18.1 18.1l9.3-7.2c-7.2 5.5-15 10.1-23.3 13.7 3.7-1.6 7.3-3.1 11-4.7-8.1 3.4-16.6 5.7-25.3 7 4.1-0.5 8.2-1.1 12.3-1.6-9.5 1.3-18.9 1.3-28.4 0 4.1 0.5 8.2 1.1 12.3 1.6-8.7-1.3-17.1-3.6-25.3-7 3.7 1.6 7.3 3.1 11 4.7-8.3-3.6-16.1-8.1-23.3-13.7l9.3 7.2c-6.7-5.3-12.8-11.3-18.1-18.1l7.2 9.3c-5.5-7.2-10.1-15-13.7-23.3 1.5 3.7 3.1 7.3 4.7 11-3.4-8.1-5.7-16.6-7-25.3 0.5 4.1 1.1 8.2 1.6 12.3-1.9-14.2-1-29.1-1-43.4v-272c0-14.6 0.2-29.2 0-43.7v-0.6c0-11.8-5.1-24.3-13.5-32.6-8-8-21.1-14-32.6-13.5-11.9 0.5-24.3 4.5-32.6 13.5s-13.5 20.1-13.5 32.6v338.1c0 32.2 6.8 64.9 26.3 91.3 5 6.8 10.1 13.6 15.9 19.6 6.2 6.4 13.2 11.7 20.3 17.1 11.3 8.6 23.7 14.2 36.9 19.4 13.3 5.2 27.9 7.3 42 8.3 13.9 1 28.3-0.8 41.9-3.9 26.8-6 52.7-21.2 71.7-40.9 19.3-20.1 34.5-46.6 39.1-74.3 4.3-25.5 3.1-51.4 3.1-77.2v-84.3c0-16.3-8.8-31.6-22.8-39.8-13.4-7.8-33.3-9.2-46.6 0l-72.6 50.7c-3.5 2.4-6.9 4.8-10.4 7.3-10 7-17.9 15.5-21.2 27.6-3 11-1.7 25.7 4.7 35.5s15.8 18.5 27.6 21.2c11.7 2.6 25.6 2.4 35.7-4.7z" p-id="8420"></path></svg>
