<svg t="1622085773868" class="icon" viewBox="0 0 1024 1024" version="1.1" xmlns="http://www.w3.org/2000/svg" p-id="8551" width="200" height="200"><path d="M747.6 603.8c0 12.6-0.9 25.2-2.5 37.7 0.6-4.3 1.2-8.7 1.7-13-3.4 25.2-10.1 49.9-20 73.3 1.6-3.9 3.3-7.8 4.9-11.7-9.6 22.4-22 43.5-36.8 62.9 2.5-3.3 5.1-6.6 7.6-9.9-14.9 19.1-32.1 36.3-51.2 51.2 3.3-2.5 6.6-5.1 9.9-7.6-19.3 14.9-40.4 27.3-62.9 36.8 3.9-1.6 7.8-3.3 11.7-4.9-23.5 9.9-48.1 16.6-73.3 20 4.3-0.6 8.7-1.2 13-1.7-25.1 3.3-50.4 3.3-75.5 0 4.3 0.6 8.7 1.2 13 1.7-25.2-3.4-49.9-10.1-73.3-20 3.9 1.6 7.8 3.3 11.7 4.9-22.4-9.6-43.5-22-62.9-36.8 3.3 2.5 6.6 5.1 9.9 7.6-19.1-14.9-36.3-32.1-51.2-51.2 2.5 3.3 5.1 6.6 7.6 9.9-14.9-19.3-27.3-40.4-36.8-62.9 1.6 3.9 3.3 7.8 4.9 11.7-9.9-23.5-16.6-48.1-20-73.3 0.6 4.3 1.2 8.7 1.7 13-3.3-25.1-3.3-50.4 0-75.5-0.6 4.3-1.2 8.7-1.7 13 3.4-25.2 10.1-49.9 20-73.3-1.6 3.9-3.3 7.8-4.9 11.7 9.6-22.4 22-43.5 36.8-62.9-2.5 3.3-5.1 6.6-7.6 9.9 14.9-19.1 32.1-36.3 51.2-51.2-3.3 2.5-6.6 5.1-9.9 7.6 19.3-14.9 40.4-27.3 62.9-36.8-3.9 1.6-7.8 3.3-11.7 4.9 23.5-9.9 48.1-16.6 73.3-20-4.3 0.6-8.7 1.2-13 1.7 25.1-3.3 50.4-3.3 75.5 0-4.3-0.6-8.7-1.2-13-1.7 25.2 3.4 49.9 10.1 73.3 20-3.9-1.6-7.8-3.3-11.7-4.9 22.4 9.6 43.5 22 62.9 36.8-3.3-2.5-6.6-5.1-9.9-7.6 19.1 14.9 36.3 32.1 51.2 51.2-2.5-3.3-5.1-6.6-7.6-9.9 14.9 19.3 27.3 40.4 36.8 62.9-1.6-3.9-3.3-7.8-4.9-11.7 9.9 23.5 16.6 48.1 20 73.3-0.6-4.3-1.2-8.7-1.7-13 1.6 12.6 2.5 25.1 2.5 37.8 0 12.5 5.4 25.7 14.3 34.5 8.5 8.5 22.4 14.9 34.5 14.3 12.6-0.6 25.7-4.7 34.5-14.3 8.8-9.5 14.3-21.3 14.3-34.5-0.2-67.1-20.5-135.3-59.6-190-10.5-14.7-21.9-29.1-34.5-42.1-12.7-13.1-26.7-24.5-41.2-35.6-26.3-20.1-55.7-35-86.7-46.4-63.9-23.5-137.1-25.2-202.4-6.5-62.8 17.9-121.6 55-163.1 105.5-11.5 14-22.5 28.7-31.9 44.2-9.5 15.8-16.9 32.5-24 49.5-12.9 31.4-19.5 64.8-22.2 98.6-5.3 67.3 11.9 137.3 46.9 194.9 33.7 55.5 84.4 102.6 143.8 129.4 16.9 7.6 34 14.6 51.9 19.5 18.3 5.1 36.9 8 55.8 10.2 34.6 4.1 69.7 1.5 103.8-5.4 64.2-13 125.2-47.5 170.4-94.8 45.4-47.5 78-109.3 88.1-174.5 2.9-18.8 5-37.6 5.1-56.6 0-12.5-5.5-25.7-14.3-34.5-8.5-8.5-22.4-14.9-34.5-14.3-26.7 1.2-48.9 21.5-49 48.9z" p-id="8552"></path><path d="M731.2 122.9c-1.3 3.3-2.6 6.7-4 9.9 1.6-3.9 3.3-7.8 4.9-11.7-9.7 22.8-22.2 44.2-37.4 63.9 2.5-3.3 5.1-6.6 7.6-9.9-14.8 19-31.9 36.1-51 50.9 3.3-2.5 6.6-5.1 9.9-7.6-19.7 15.1-41.1 27.6-63.9 37.3 3.9-1.6 7.8-3.3 11.7-4.9-22.9 9.5-47 16.1-71.6 19.4 4.3-0.6 8.7-1.2 13-1.7-25.4 3.3-51.2 3.3-76.6 0 4.3 0.6 8.7 1.2 13 1.7-24.6-3.4-48.7-9.9-71.6-19.5 3.9 1.6 7.8 3.3 11.7 4.9-22.8-9.6-44.3-22.2-63.9-37.3 3.3 2.5 6.6 5.1 9.9 7.6-19-14.8-36.2-31.9-51-50.9 2.5 3.3 5.1 6.6 7.6 9.9-15.1-19.6-27.7-41.1-37.4-63.9 1.6 3.9 3.3 7.8 4.9 11.7-1.4-3.3-2.7-6.6-4-9.9-4.6-12.2-10.8-22.4-22.5-29.2-10.5-6.1-25.9-8.7-37.6-4.9-11.8 3.8-23.2 11.2-29.2 22.5-5.8 11-9.5 25.5-4.9 37.6 18.8 49.5 47.3 94.8 86.5 130.8 39.1 35.8 86.1 62.7 137.3 77 52.9 14.7 108.9 15.6 162.4 4.1 52.4-11.2 100.1-36.5 141.4-70.2 45.5-37.1 78.3-87.1 99-141.6 4.3-11.2 0.9-27.7-4.9-37.6-5.9-10.1-17.5-19.8-29.2-22.5-12.5-2.8-26.5-2.2-37.6 4.9-11.3 7.3-17.8 16.7-22.5 29.2z" p-id="8553"></path></svg>
