<svg t="1622085506648" class="icon" viewBox="0 0 1024 1024" version="1.1" xmlns="http://www.w3.org/2000/svg" p-id="6814" width="200" height="200"><path d="M308 792.7V299c0-21-0.1-42 0-63.1 0-4.7 0.3-9.4 1-14-0.5 4-1.1 7.9-1.6 11.9 1.2-8.5 3.5-16.6 6.8-24.5-1.5 3.6-3 7.1-4.5 10.7 3.5-8.1 7.9-15.6 13.3-22.6-2.3 3-4.7 6-7 9.1 5.2-6.5 11-12.4 17.5-17.5-3 2.3-6 4.7-9.1 7 7-5.4 14.5-9.8 22.6-13.3-3.6 1.5-7.1 3-10.7 4.5 7.9-3.3 16.1-5.5 24.5-6.8-4 0.5-7.9 1.1-11.9 1.6 9.2-1.2 18.4-1.2 27.6 0-4-0.5-7.9-1.1-11.9-1.6 8.5 1.2 16.6 3.5 24.5 6.8-3.6-1.5-7.1-3-10.7-4.5 8.1 3.5 15.6 7.9 22.6 13.3-3-2.3-6-4.7-9.1-7 6.5 5.2 12.4 11 17.5 17.5-2.3-3-4.7-6-7-9.1 5.4 7 9.8 14.5 13.3 22.6-1.5-3.6-3-7.1-4.5-10.7 3.3 7.9 5.5 16.1 6.8 24.5-0.5-4-1.1-7.9-1.6-11.9 1.1 8.5 1 17.1 1 25.7v475.1c0 23-0.3 46 0 69.1v1c0 11.5 5 23.5 13.1 31.7 7.8 7.8 20.5 13.6 31.7 13.1 11.6-0.5 23.6-4.3 31.7-13.1 8-8.8 13.1-19.5 13.1-31.7V252.3c0-8.7 0.4-17.7-0.5-26.4-1.4-14-3.5-27.5-8.8-40.5-3.3-8.1-6.6-16.1-11.1-23.6-4.4-7.3-9.9-14.2-15.3-20.8-17.2-21-42.5-36.2-68.3-43.9-53.1-15.9-115.6 2.3-150.3 45.9-5.1 6.4-10.2 12.8-14.4 19.9-4.6 7.9-8.1 16.5-11.4 24.9-5 12.9-7.1 27.1-8.1 40.8-0.3 3.7-0.2 7.3-0.2 11v553c0 11.5 5 23.5 13.1 31.7 7.8 7.8 20.5 13.6 31.7 13.1 11.6-0.5 23.6-4.3 31.7-13.1 7.9-8.7 12.9-19.4 12.9-31.6z" p-id="6815"></path><path d="M163.8 181.4c4.6 0 9.2 0.3 13.8 1-4-0.5-7.9-1.1-11.9-1.6 8.5 1.2 16.6 3.5 24.5 6.8-3.6-1.5-7.1-3-10.7-4.5 8.1 3.5 15.6 7.9 22.6 13.3-3-2.3-6-4.7-9.1-7 6.5 5.2 12.4 11 17.5 17.5-2.3-3-4.7-6-7-9.1 5.4 7 9.8 14.5 13.3 22.6-1.5-3.6-3-7.1-4.5-10.7 3.3 7.9 5.5 16.1 6.8 24.5-0.5-4-1.1-7.9-1.6-11.9 1.1 8.5 1 17.1 1 25.7v475.1c0 23-0.3 46 0 69.1v1c0 11.5 5 23.5 13.1 31.7 7.8 7.8 20.5 13.6 31.7 13.1 11.6-0.5 23.6-4.3 31.7-13.1 8-8.8 13.1-19.5 13.1-31.7V252.7c0-8.7 0.4-17.7-0.5-26.4-1.4-14-3.5-27.5-8.8-40.5-3.3-8.1-6.6-16.1-11.1-23.6-4.4-7.4-9.9-14.2-15.3-20.8-17.2-21-42.5-36.2-68.3-43.9-12.9-3.8-26.8-5.7-40.2-5.7-11.5 0-23.5 5-31.7 13.1-7.8 7.8-13.6 20.5-13.1 31.7 0.5 11.6 4.3 23.6 13.1 31.7 8.7 8.1 19.5 13.1 31.6 13.1zM507 236.1c0-4.6 0.3-9.2 1-13.8-0.5 4-1.1 7.9-1.6 11.9 1.2-8.5 3.5-16.6 6.8-24.5-1.5 3.6-3 7.1-4.5 10.7 3.5-8.1 7.9-15.6 13.3-22.6-2.3 3-4.7 6-7 9.1 5.2-6.5 11-12.4 17.5-17.5-3 2.3-6 4.7-9.1 7 7-5.4 14.5-9.8 22.6-13.3-3.6 1.5-7.1 3-10.7 4.5 7.9-3.3 16.1-5.5 24.5-6.8-4 0.5-7.9 1.1-11.9 1.6 9.2-1.2 18.4-1.2 27.6 0-4-0.5-7.9-1.1-11.9-1.6 8.5 1.2 16.6 3.5 24.5 6.8-3.6-1.5-7.1-3-10.7-4.5 8.1 3.5 15.6 7.9 22.6 13.3-3-2.3-6-4.7-9.1-7 6.5 5.2 12.4 11 17.5 17.5-2.3-3-4.7-6-7-9.1 5.4 7 9.8 14.5 13.3 22.6-1.5-3.6-3-7.1-4.5-10.7 3.3 7.9 5.5 16.1 6.8 24.5-0.5-4-1.1-7.9-1.6-11.9 1.2 9.3 1 18.8 1 28.2v555.6c0 26.8-0.3 53.6 0 80.4v1.1c0 11.5 5 23.5 13.1 31.7 7.8 7.8 20.5 13.6 31.7 13.1 11.6-0.5 23.6-4.3 31.7-13.1 8-8.8 13.1-19.5 13.1-31.7V237c0-24.5-6.1-48.1-17.5-69.7-17.2-32.7-47.6-56.3-82.1-68.4-8.1-2.9-16.4-4.3-24.9-5.4-8.2-1.1-16.3-2-24.6-1.6-21.3 1-39.9 6.2-59.1 15-14.8 6.8-28.6 17.3-39.8 29-14.3 15-23.7 31.4-31.4 50.4-6.3 15.5-8.9 32.9-9.1 49.6-0.1 11.4 5 23.6 13.1 31.7 7.8 7.8 20.5 13.6 31.7 13.1 24.3-0.9 44.5-19.5 44.7-44.6z" p-id="6816"></path><path d="M706 457c0-4.6 0.3-9.2 1-13.8-0.5 4-1.1 7.9-1.6 11.9 1.2-8.5 3.5-16.6 6.8-24.5-1.5 3.6-3 7.1-4.5 10.7 3.5-8.1 7.9-15.6 13.3-22.6-2.3 3-4.7 6-7 9.1 5.2-6.5 11-12.4 17.5-17.5-3 2.3-6 4.7-9.1 7 7-5.4 14.5-9.8 22.6-13.3-3.6 1.5-7.1 3-10.7 4.5 7.9-3.3 16.1-5.5 24.5-6.8-4 0.5-7.9 1.1-11.9 1.6 8.2-1.1 16.3-1.3 24.5-0.2-4-0.5-7.9-1.1-11.9-1.6 7 1.1 13.8 3 20.4 5.7-3.6-1.5-7.1-3-10.7-4.5 7.9 3.4 15.1 7.8 21.9 13-3-2.3-6-4.7-9.1-7 7.6 6 14.3 12.9 20.3 20.6-2.3-3-4.7-6-7-9.1 6.8 9 12.5 18.7 16.9 29-1.5-3.6-3-7.1-4.5-10.7 4.1 9.9 6.9 20.2 8.4 30.8-0.5-4-1.1-7.9-1.6-11.9 1.8 14.4 1.1 29.2 1 43.7-0.1 13.2-0.6 26.3-2.3 39.4 0.5-4 1.1-7.9 1.6-11.9-3.5 25.5-11.6 49.9-21.5 73.6 1.5-3.6 3-7.1 4.5-10.7-3.5 8.3-6.8 16.7-10.3 25.1 1.5-3.6 3-7.1 4.5-10.7-4.1 9.7-9.7 18.6-16 26.9 2.3-3 4.7-6 7-9.1-10.6 13.6-23.3 25.5-36.9 36.1 3-2.3 6-4.7 9.1-7-20.4 15.8-43 28.9-66.7 39 3.6-1.5 7.1-3 10.7-4.5-13.3 5.6-27.1 10.5-41.4 12.5 4-0.5 7.9-1.1 11.9-1.6-10.8 1.4-22 0.6-32.9 0.6h-44.1c-11.5 0-23.5 5-31.7 13.1-7.8 7.8-13.6 20.5-13.1 31.7 0.5 11.6 4.3 23.6 13.1 31.7 8.8 8 19.5 13.1 31.7 13.1h32.8c11.5 0 23.5-5 31.7-13.1 7.8-7.8 13.6-20.5 13.1-31.7-0.5-11.6-4.3-23.6-13.1-31.7-8.8-8-19.5-13.1-31.7-13.1h-32.8c-11.5 0-23.5 5-31.7 13.1-7.8 7.8-13.6 20.5-13.1 31.7 0.5 11.6 4.3 23.6 13.1 31.7 8.8 8 19.5 13.1 31.7 13.1 23.5 0 47.1 0.9 70.6 0 17.6-0.7 35.1-5.1 51.5-11.4 43.1-16.4 84.2-40.5 116.9-73.3 20-20.1 36-43.6 45-70.6-1.5 3.6-3 7.1-4.5 10.7 9.3-21.1 18.2-42.5 24-64.9 4.6-17.8 7.1-36.2 8.3-54.5 1-14.6 0.8-29.2 0.7-43.8-0.1-19.8-1.6-39.9-8.2-58.7-7.9-22.7-19.2-42.1-34.7-60.3-12.5-14.7-28.9-27.8-46.5-35.7-20.4-9.1-42.1-14.8-64.6-12.6-23.2 2.3-45.3 8.2-65.2 20.6-42.5 26.5-68.9 73-69.3 123.1-0.1 11.4 5 23.6 13.1 31.7 7.8 7.8 20.5 13.6 31.7 13.1 24.1-1.1 44.3-19.7 44.5-44.8z" p-id="6817"></path></svg>
